<mxfile host="Electron" modified="2024-02-16T06:11:03.480Z" agent="Mozilla/5.0 (Windows NT 10.0; Win64; x64) AppleWebKit/537.36 (KHTML, like Gecko) draw.io/21.2.8 Chrome/112.0.5615.165 Electron/24.2.0 Safari/537.36" etag="7k0p9NVUVT8yx6n5yRYt" version="21.2.8" type="device">
  <diagram name="Page-1" id="2XWkQP5S-hDbL94sL5Vg">
    <mxGraphModel dx="2058" dy="1180" grid="1" gridSize="10" guides="1" tooltips="1" connect="1" arrows="1" fold="1" page="1" pageScale="1" pageWidth="3300" pageHeight="4681" background="#999999" math="0" shadow="0">
      <root>
        <mxCell id="0" />
        <mxCell id="1" parent="0" />
        <mxCell id="APLwThIm-aDqV8bCMrbt-1" value="Header, Footer and Highlight" style="rounded=0;whiteSpace=wrap;html=1;fontSize=25;fillColor=#dae8fc;strokeColor=#6c8ebf;" parent="1" vertex="1">
          <mxGeometry x="1298" y="140" width="650" height="60" as="geometry" />
        </mxCell>
        <mxCell id="y_HKtomXEPVr1-Xnct7p-1" value="" style="shape=image;verticalLabelPosition=bottom;labelBackgroundColor=default;verticalAlign=top;aspect=fixed;imageAspect=0;image=data:image/png,iVBORw0KGgoAAAANSUhEUgAAAocAAAL1CAYAAAC1/k4oAAAAAXNSR0IArs4c6QAAAARnQU1BAACxjwv8YQUAAAAJcEhZcwAADsMAAA7DAcdvqGQAAJ+ZSURBVHhe7N0HYFPV4gbwL6t7TyjQ0pYNsmTvDYIge7p4bn3+Hc+FT30O3ANFBcGBiCJ7yN7I3hvZHYwW2tKZzqz/PclNaNO0lN2E76e3Tc4dubktN1/PuedcRcNG95hgz2RC6ULBcemNkl6OyLnwl5ao8lIo5AdEzuHGfmWvbWXz0g5eUFGsrGQ4dBgKpTJ+Dt4c13kgefjpzuFvX/lu6IxORFdxR/6FudgfF5a3U/o9WYodlEtllnB4M0LhDSRIfvxURnfgp+JEvwj8nSWqvJzqo/2O7KxTHaG7wg39RK4hzDoKipYiu7KGDRvZxToHodBheHR2d+AdXedLut6xv9s50U+Uv3y3TsXP53TNeHArmzvyE7nuF3Wt3x/zu7EPf5ZC82PBfhlFAykcyo+lDGj3SXBNofAGPkXuwAfQHXjJO+DuOLB3x8+SiCqzkh+9t8ltf9E78i6dynUfoRs6tBVb2bxUBUOiORyWHwrlR9I31/oQvs53cwMHwbWO361wB47QXfJD4e8e3SklP4oquTuys051hG67Gzo6172y6/xMzO/kyhczy9OS77F4SBRfFfUbNCzxuXElKMrfpW8V+2Cp2FIOXeeqN/CKd8jtfaPOd3zuFk70k+EvUeVT8pxODvEgleeOHJ3rflHn+llWvrdp2bD565UvZsV7JwslAqItHNrXFlr+l9k/ryxuYI+uc9XKdwzKc/uPz41wrmN7J/AI0d2k5AcXlXbdR+j2r+hU7DLTNap8x8i+VrDYF/mh5bFgXdYcDu1rC688tb/msJwPp3JmXc0NrHr9bG/y2tyRfb0jrvOd3iUH6O75PSCiirjy8XobXfeL3pG9ve3uzOG5vpVv3UtemWl+JAfB4oFRsJ+nqFe/gfw5J32z/G9+XDI72T935KoLlO06V72BV7wBd8v7vFs40dF1sl8E/t7eGldO5y7ujrzRu+bo3nbXfWRv6Edy+3+elfF9mufKwU+wBkP5m/VLieXkcFgs/EkP1BoNvL294KZxg5u7G1Qq1S0909vXT5Idpzo8t39n+dtDRHea5SP1drszr3pdnGhX7wQ5qt0a0qYNBgMKCwtRVKRDXl4e9DqdVG55TWtYtH2VCqRwWL9Yq7IJvr6+8A/wx+VMLfILilAgbUin08sL3C6Wnby1xJu+Ha9DN599HHT0c7yByMhfi0qOfw5cwWNBRFenUavh4a6Bp7sbQgL9kZmZhZzsbHMQFOwDoqJuvfrms4tIiCEhIdKpRonktAwpXd7uQGh1qz+Zi59Mb/Vr0a3h6AOxIj/La/gg5a+GE2AwsuBxIKKKc9OoUTUkCGqVAikpqXKp9LFn/tyzfPgpxYlFBEM/X1/pkRKJSakuHAwF8RrWiagM/Lx1Avw3TER0rYp0eiQmp0BvsLQWW5qPrZcXWj78lOKJqG4UTcmixvDmKB7ArmUiuh6Ofncsv+wlJ3I9PG/wGBDR9UhOS0eAv785A1qDofW7Unzz9vE2X2N4c2oMeaKiW63471hZwbASsWbTSrZbrkP8Dtzt5x0eAyK6NqIGMS0zC17eXubnlmBo+a4UX0WvZNH5hMh5OMmHoX0gZEC8hRiOeAyI6FrkFxaZM6A1GVqbmJXimxiuRvRKvnE8MZELsfwbuTKVx35Z60S3Gc9BREQVVVCog7u7u+XjylZ1KJ1Ja9epY6oZVRNHT5+zFDqkgJ+vNzRqcyv0NdHpDcjOyZOfEd0OtyiVlZU7ruflmGFuoVv083cad/v7J6Jr0TA2CgmJCdIjha3HsqJWbSkc1ozCP2fOixIH5xXLp9iEzz9CbK1a5sdlsd7E+cLFNFsAzc2+jJdfHQelUmUpILotrL/IjlJYeR+e9ssXW/ZaN1URjrZJN8mN/nCc1d36vonoejSIjURCQuKVYCg9KF0VWMaHVYC/HxrWq13u1KBuLfPUs3Mb9OpimUJDguU2bKLbSfwiX2vycrR8Odu4Gb/W/KdxC13rz5+IXMkH77yFsyeP4sKZ4w4nMU8sU9lsW7cS7Vq3kp+VJuZtXbtCfnazXLlTnshsFW4nVqmUSDybgm/+2IqJf27Bt7M347t5m/D9wo2IjzuP/NwcpF66aJ7ytDmYseqQebqaI3u3onXLe+VnFkvmz8T4d/9reXITXIg7Kj+6PmL/xDaKT/b77KymTf3OPNl77NEHsWX9cvnZFcWPpfjZOVrXnqOfsZV1e+L1KnJcxXyxvRtzjSHQSvzDKT6VcK1BRCxfzjr2r1Xq9ahirvXnQkSu4pEHR6FnvwdQv1krh1OnnveZl6lsXnnzHXz39ecOA6IoE/Ne/e//5JJbo3Q4LPUhZPlkMn+UKVSIz9IiIScHiXnZOFeYhfO6TOh0RilpSpP8n5XKzSA/cn4ZGZmoFtPQNu3cvVeec+1uTsC58xrd2x5jn/y3/OzG/Pzr77f5uFpDw1VCmllFAkZF05uD17NftaKbInKoIr+vRK5PpVIh+VIKsrOzHU4JiWfNy1Q223buwr9ffLVUQLQGQzFPLHMrXQmHlgxYJoPRMjM02B0KNz2y9NlILbiMS/mWW68o7Nb1CCyAVwg7olBldj0fotZwV3wqTwWXtf77K+ffIF2vqxx7l3Q3vmci12EfEG9nMBQq3Kxs/cw6duk84jOTkanPQD5yUKTQmstN8nlIIZ+QvAO08PKxzCv5yXftn36iedPanGttxhS1RNay4uWCaJJ2VC5Ymy+tk5V4DbGsKLuWJu3i+2ZfayWax63zxCSI/V4w+zcEBgaYy6z7Z31tMRVvzrUuI76LdYsrvk7x+aJcTGJ/RLn9flnLxXQjxH6K4ykUP66ivPg8oX+/Prb5Yt/s2df6FT921vdSXPH3Ll6nrON681zPh21Flrdu17ps8efWMro57sbjyd8hImdVPCDezmAoVDgcWk8x+VIY1HjqoPHQQe1eBI00mUmZzxoMhXqhNVArIEZ+Vj7xoW79oBdT82ZN5DmWkLBx01Zbc27tWjHmICCaH61lYurVo6t5eREUxj482lZenFjvpeefsc175/2Pzdu3EtsW5W+9+6FccoU1dIjJGlTEusWbm3fv3W8LdiKciHWs86b9NtO8ntjvwSMetq0nmmVFGA0JDrIte+p0XKmAKsrtm1zFutZ1xPbfeuM/8hyYj8djT/+feV5mVpZte2L/xH5a17MeN0eia0aV+LmIqSzvvzPOfDyt+yLWLa5Lp/bmeeK9l/eagthXsb51H8WxKU4cV8H6WuLn7ei43j6OPoCv50P5Kuvc2N9YZHY9PxcictShw9FErqHC4dDKHAqlSeMupmLhUDrnFv+8qhUYa54sxAm5+FSS+FC3BgEx7dt/UJ5jCSjiw98aTsRzUQslFK9dsurQrg1Wr90gP7MEKCuxXvGQJwJN8RAjgkZZiodAca2dINYd/8mX5seCeC3r9kTQLL49a+C01u4V1+SehuZAbN0vEZ5EmVV5Qce6jjhGxYljYA2TImxWi6hqfmw+nsW2V/xY2YtPSCzxcxGTIyKQi2XFdYOC+C6eF/ef1982fxf7JI6lo+NgJd77oiVXak+LH2NBrG99D0uWrTTfG/LOK/93/PrdzG0REV2farH1KjTRzVO8Kbl4E/PtcM3h0BIMLaHQTXx3s4RD6y1XLEwo0umQn18gP78x9uFRBC0RDNMupzsMLReSkuVHpYngWXxb1qB3s4jgUh772j8rESSL71f/ISXDniMiFFqPTXnBtrir7d/1utnbtQ+XdzcGxJuLx5OIKjf7awztr0G81ZTmgW0q0kQlnU8LC/PROiQWLQJro7lfHTT1ro/Gng3N5ZZFLCddsUmj0QiDNN0oERKKN5cWZw2BxZtgRdnA/n3lZ5bmXStRyyRq6MqrtboW9vsmXssaak6djitRmyf2UTTvCiIgWptGhYOHj5bY52thDZui2baiih+vqzXxVsSRo8dKHFdRk1i8RvZaidBf/NiV9fO3Z39cXYv4t8VQc/PwWBK5OoPBgKByPhOqhIebl6lsyup8cssCoq1uT+RBSyCscM2hyHn169bAU1174KnOvfBEx/vweMcBeKz9A6hXtzq8vLwRFhaKoOAgaNw05nCoVN74CVjUoImgYW0+FZMgmh2tzc3Fm2BFraIIaMWXtRLhQdSwFb/G8UY6Loh9K95MLZqSrTV+otlT1KZZ54nw16HblQBo3Ufx+vb7LKbinTnKImpBrctXtOZOXIdYvJm+vGblirI/rmL71pB8PaxNxtZ9FGGxooofV5dn/QdtnYiIyGb6739i05oVDq+NFNOuzevNy1Qm4u4kn3/4XqlgaGUNiF989L5ccmsoatWqbapZs+aV2+eV4cXnn0Wzpo3lZ6UplUrzJFJ48TuiHDp4GJ9PmAilSi2X0N1AdL4RQdRas3kjrJ2Miofru1sZSZCVYdfhbknV/OuByFmIgHg77yzXIEbcPi/B/BlibgGWXr+C4dCyoyajFPzkkooSn1cKpcr8ZunuIGrtWt7b7KZdzymCpuhhXV7HnLuPg3+J/Cd2He620MSQSEQlOQqHFWhWtnzimG/ErFJDdY2TWIfB0PWJAGdtBhbXMd5IMBQ1hdZtiUk0FTMY2hP/pvjv6sbdbceRvzNEdHXFag4vSE/t/6rkiYSociunJoj/fK/R3VKrxtpDIrqiAjWH4tOk+ERElZP4gOeH/M3Fcx4RkXDN4xwSERERketiOCRyCaztvzl4HImIGA6JXJW15Zkt0NeBAZGI7l4Mh0ROyT68MAESEdHNwXBI5LTYBEpERDcfwyGRS2JwJCKi62Mb53D0lPlyERERERHdDWY+NeR67pBCRERERHeLUjWH+swu5u9ERERE5JrUARvN31lzSERERETlUnLwCyIiIqK7lzkLSl+smZA1h0RERERkw3BIRERERDYMh0RERERkw3BIRERERDYMh0RERERkw3BIRERERDYMh0RERERkw3BIRERERDYMh0RERERkw3BIRERERDYMh0REt4DJaIJRmky8RykRORmGQyKim01fgLXPHMbznf/Bb3/r5EIiIufAcEhEt4ARiT+fxGvdDuGl7ofx0dc5yJfnVFTh0WR83sey/v/+m45UozzDSRiLjNDlGVGglwuIiJwEwyER3RpFBmiz9MjN1CFxRRqOpMrlFaLHsTmXcTrVsn5mRuVLhqYiPZJ2ZeO8Vi4gInIRDIdEdAsp4BGghjotGxtXFUiRr2KMZzOwcVMRNMEaeCrkwkrEeDYNkwcexnvjUnEuTy4kInIRDIdEdEsFNPVBFTcD4v+6jPgKBSkj4hen4VS2CuEN3OEpl1YuRuTnsLMJEbkmKRyKsxvPcER0ayj8PBFVQwF9fDr+3q676tnGlJ6NjSvyofPxQp0YBXSV8fRUfJ94+iQiJyb9mSt9MX81PxOPWXNIRLeUQeGOpr284WHU4cjcTFwyyDMcMuHS6lQcugQEtglG0wgFrnq1YZEO8asuYdYbp/HZg8fw3qjj+Oz5BMyfm42LZV0PqCvCP3MvYumPF7H5gAisJmQeuoyFb1m28cHDp/DTt5cRn14y+eXsTZXWScbSBTnIEm3k+iIcnSM9F2W2bdkR51rpv+yj6Vj0trT90cfw/kOnMHVCGk5cKrW0jTGnAAd+O4efXzyJD0cew4f/OoUfPr2Evcd0KPcQEhHdIIZDIrqFTDCq1IjtH4KGIUDewTRsO1pO3MvLxdaFWuS7eaLFUF94FxjLDULa/RcxceARfPLmBaxfk43Tx/ORdCoPp7elY9Unp/HuAycwf5uudMBUGHFu+UX89UMKDp0uwP6vT+K9xxOxYmU2zkjbOHc0B7t+TcSnD8Zhwynr2ibkn8nE6h+kIPh7Fi4WSUW5+dJyydJ2xHQJO48ZRRYswagtxIGJp/DeYwlYsULa/sl8nP8nB3t+P4uvRp7CssP279CE9LVn8V6ffzDpm1Ts3KLF2TP5SDyYg31zLmDmTznIKTtTEhHdMIZDIrqlTFK2UoT7o0tPD6iLpDA1Xwo38jx72dukMHTGBM97gtGhmRoatYhKjuUfTMZ3LyThyCUTvO4JxaNTG+CTdU0xcX0jvPtDJDo1UMGUmYtVr8dhyUEHEVPecMHuS5i1yIB7Xq2D8aubmNd/66Mw1PSVgt2lLPw14TIumnvSKODfuioemxCLp98KRZSHVOTng17vxOA5qey5CTXRv63a7qRqQu6Oi5i3zIAG/1cb761qgm823IN3PglHjJ80N1uLVRPScF4ETVnh4YuY/F4aknVuuOfZWnh/bVN8t7kJvlxWHy+NC0PDGip5SSKiW4PhkIhuAxViBwYj2hvI2JSK/ecdRD5dAXbOzkYmNGg4LBBVpGBYZkflfCn0fXYJcbkKhPatiTen1kC7ez0Q5K+Eu58bIlqG4MGf6mJ0ezUUeblY920akuzGorbsgR4nNhWh6Ud1MHaYD8KCVOb1I3tXx9OvBcBP2oHcwxk4fNaytHuUD5p08kfTe93hIc6eChWqtQ0wl4mpbs0rwc3SWUWPk9L2G7xdC/8a7YsqwSp4+GpQvWcEnnzdsv2Ck5k4cs56PIxI3pyJC3mAT/sIjBnrhyoBSmg8VPCt4on6Q6vjXy/6I6AS9uAmItfBcEhEt4U6Nghd2mqAbC02L81Hscoys/xDadhyyAB1TCC6ttOUHQwlufvSsPOkEYogf/T/dxBC3eQZxbl7oPVjwagmzSs4mo7d0vKO+HeqivvaSCFSfm4V1CEYjatKpfmFOHv2+q/y821XBfeVej8KBLUJRqMqUmlBES6cu7J9W0zUld+kTkR0qzAcEtHtodCgkagR1Ijr/VJxIksuF0w6HJmTgYt6FaIHhJhrGMtmxKV9eciSsp5P4wDUC5OLHfCo448G1aUAVlSEhFP6Ek3UlrCmRFB9D/g5OhN6aBDgKy1lMqEg19qT71opEXKPp+Pte2kQ7G/Zfr7Wun0lgut7wl8F5O1MwvTJWUi91lvLEBHdIIZDIrptPBuHoENjFYwXsrBxY5EtcOnj0rFhmw4I9UOX3h5Qy+WOGZGZpIdBind+0e7wtqQ8x9w1CA0VpzkTtKmGkjVx5vWUCKyqhsOr+NQq+IvwJjEarj0aKqzbr6J2/H6k7fv4WLZvMl7Zvl/nahg5zAueokn6lzN4u89RfP15Gk4kle7sQkR0KzAcEtHt4+aBlkP9EKCQgs/8yzhXKAoNODUvDfF5CoR3D0GjUPOSZTMZkZ8rgpICaneFXANYBqUSXub0aIKh8A6Fq3J30AGlBk1erYN3vquGtg01UOYW4p9ZZ/HlwCP4+ON0JPOOLER0izEcEtFtFdA+FC1jFCg8lo6Nu/XmHsEb1hbC4OWNDoN9rn5HFIUS3v5KKXMZkX1OhwK52CGdHulp4lpDBTyDVI5rCCslJYJbh2Psb43w+exYDO7jCW/okTAvEV+/l47Uit6HkIjoOjAcEtHt5e2N9gO84WksxJFFmTiy5jJOpgN+bULMofHqVAir4w7RByXvXD4y7Xu2FJdXhIsiHKo0qF5H44QnPAW8Y/3R58N6eOuDIIRpTMjYkord8WxgJqJbh+GQiG4zBar2DkWjMCBrdyqWLcxFntoDLYb7I7BCTbAKhLb2Q3UvoPBIKpauKSo9yLWZCReWpGBfEqCO9EOzujev3lChUooWa0BvREHh7QhqCgS3C0K9MOkAFUqB9wL7MRPRrcNwSES3nSLUD517ekClzUd8ghEeDYPRoUnFw5umVjB6dXeHyqjDgQkJWPh3EUq2tBqRuu4Cpv+cg3ylBo0eDkNtX3nWTaDw1SBQ9KjOL8Dp4yV7Qd8YA07NvYidJ/SlAm9BYi7OZ0iv5OmOahwIm4huIYZDIroDVIgZGIJYH+mhQoP6w4LM4xFWmBT4mr0chX7N1TBlaLHqlX/w5oiT+GH8ecz5IA5fjjiK999IQUKOCjUfjMJD90tBUl71pvD1QuPmblBK4XTP+ycx4b9nMe2FU/hpUUEZtZgVV/BPGn558AjeGH4S3751DvO/PY/fXjmBd59ORly+CrGjI9CxQs3vRETXh+GQiG4JhYcK7hoVPMsYa0YdHYiuXdzhU1v63qGMQa/VSmikydPTwVw/H9z/fV0893QAqvmakHVai30LU7B2USZOnNFDVcMffT+vh1de8IOvgzOd2kMJtZu0/XJSo0paRuOmELtRkhRomzxXA92baaDMK8TxlWnYvi0f2mJ3YVFK21aLY1DOuDxKd3H3E6UYccfGJ9YL1QKArDNaHF6RilW/pmDLhjzkBfmiy5u18O+nfODFbEhEt5AitlYtU3TNmhg9ZYG5QJ/ZxfydiOiGGE0wGKWTjFJhuT7PEWkZoxQLy5xvkhYRYwAqyllGMBqRk1yIy2kGGKS051fFHcFBynL/+hVjC4pb3In9s4xJWJp1mTJfX3rdvMs6pKcaoAp2R2iYCmp5W7Z1xfu/2vbtl5G2m5uqQ0aaHkUqFfzDNPALUEFT3hsiIroG6oCN5u9/PDUYCfEJ5vOcOBeKAcJ4qiGiW0NKOyopKZUb6kQoKm++dKJSqq6yjCAt4FvNEzWb+CC2gSdCrxIMBXNolbZdVjAUrMuU+frSDK9Qd1Rv4IWq4VeCoWBbtyLbt19G2q53uLTdht6IqechBV0GQyK6fZTir1bxhysRERER3X2sOdCaCfm3KBERERHZMBwSERERkQ3DIRERERHZMBwSERERkQ3DIRERERHZMBwSERERkQ3DIRERERHZMBwSERERkQ3DIRERERHZKGJia5mio2tijHxvZSIiIiK6O4h7K8fHJ0Ah30tUfGfNIRERERHZ2GoO165ZIxddUWTQIi5jDc5mbUJOURJyCi9Ab8znvZiJiIiIKilRB6hWesLXvRp83SIQ6d8J0QE94K72tSxQTI+ePUvVHJYZDo+kzJSmWdLGNajh0xIB7lHwUIbCzVQFep0bjAYVjEYlTEbLxoiIiIjozlAoTVAqjVCqDFBrilCkuIgCYyoyCxNxTrsbeqMOjcJGStNoeQ2LCoXDAn0G9iRNRkLmOjQKHoIov3bQ6YGifA8UFXiYlyEiIiKiys3NowDungVQq4HE7G04cnk+agZ0R4uIZ+ChDjQv4ygclrrmUATD9LxjaFPlOUT6tkZ+nga5mf4MhkRERERORGQ3rZThRJYTmU5kO5HxRNYrT4lwKJqSRY1hg6BBCPSIQn6uNwqkyWRi0zERERGRsxEZTmS5PGkS2U5kPJH1ROYrixQOTeb/C/U55msMRVNykBwMC/NZW0hERETk7MTlgSIkiownsp7IfKLjsaWXsciCcndj6but5jA+c62584m4xrBAXF/IYEhERETkMkSln8h4IuuJzCdGpHHEFg7FcDWiV7JeL62c5yWXEhEREZGrEBlPdDSu4dPKnP0csYVDMY6hGK5GpEpeY0hERETkekTGE63DIvOJ7OfIlXBYeME8jiF7JRMRERG5LpH1PJQh5uzniC0cijufiAGuiYiIiMi1mW9qImU/R2zhUPRREXc+ISIiIiLXJjKf3D+5FFs4FMQt8YiIiIjItZWX+UqGQ2OJp0RERETkgsrLfCXmmIzspUxERETk6srLfKwqJCIiIiIbhkMiIiIismE4JKJbK/cwJowciBatHsI76zPlQiIiqqwYDonoFjMi73I6MtKzoeV1zURElR7DIRERERHZMBwSERERkY2yzOGxiYiIiMj1SVmweBxUxMTEmqKjozHis3R0D5gvFxMR3SS5B/HhwOfxS3wgHvjhN3zVw1+ecYUuMx7blq3C8r8P42RSNnQewYiqVQdtHhiKEW3DUOrGnrqL2DJ7FfZnKBHati9GtPBDyr41mDFjDXbHXUauKhC12/bGI//qjabBJe8CYLp8ALNmHUC6Wxg6DO2LJoHyjOKyj2DeH3twSRWEVgP7o2VYyWslr2d///5jGQ5maxDcuh9Gt/JCwtq5+HH+PlxAFdzTuCq8pDOzW832GN2vFrzk1exlHVqOWZtTYPCvjwEjWqO6Rp5BRHQd1mUOwezXghAfHy8lQoX0vzRJ5WxWJqI7SI9Tf76J3h0exL/e+Q3z1h3A4ZMJOHFgF1bO/R3vPjwaA8atw3mdvLhNPv5ZPB1ffz0LG04kYtXHz6HvqPGYvGQ39h09jWMHd+OvH8ZjxIBx+O14gbyOhTHnDJZOmYoJUzYirlAutGPKTcSKqVPx1XercDSv+N/T17u/eTix9A98881sbI6/gHUfPYMHnv4Bs9fswpYNB5GWuQc/fjUFn3+1CPuy5VXsmS5jy08/4IuvfsXyZC8EMhgS0S3CcEhEd5QuMwNav3oY+MqHmLdhOQ4eXoeDe2bj5/9rhTBlHk7N+xZfrrtc+goYc4EROdt/w/tztOjy9iSs27kaB/YtwpKvR6CxnxL6i1vw9cfLEV8qrEmrl9pgxVzv/lqfFx6Zh09mZ6Lpoy/ju9++x7RPhqN9595oE6KA/twOrDiYIy9ZkvHSHizdeRlG77q4v389eMvlREQ3G8MhEd1BCng1fRDTV/yEL5/pimaR/vB2d4NXQA10eX4c3ugWBIUxFTtXHUWGvIaVJWxlYee6FPT8ZhK+eLApagZ7wdsvDA36/x8mvdsRUt5C1v41WJ9oMC99465/fy1ycXx7Mpq99x1+fHso7mvfDJ0GDUL/9h0wuEMYlIZL2Lr8qPSu7BlxfuMq7Ewzwb9ZH/SpxWpDIrp1GA6J6A5SoWbb9qjv72D8Q2UomnWIhY8UA7UXziO9VO2fiIcKhHUfi2c6BJivk7lCgapdBqBbNRWQdwFH4rVy+Y26gf01V1UWIcenFcb0rg53S6ksAK2HdECU2oCkLWuxxz5Z6s5h/VIpNCqC0XZIR2k5uZyI6BZgOCSiysNoQF5WGuKPHsD6vxZj6ZFcc+jT5+ch32hZxMpy2bQ7IhrFINjRmcwjEOF+Ujg0FSE3t8jWrHtTXcP+iou9AQ0iO7RDXQc9Tvya9sF9td1guLgHy+zSoS5+C5YfyoGqWjsM7Rhifg0ioluF4ZCI7ixTAeLXzMCb/3oUHe/tgWYtHkCPAc/iiZc+x5dz/oG5f4ajCwTNCckT4dUCpMjlgNoXoQGWfsMGvX1SuwHXu79m7gipFmhXayjzqov+D9SDtzENO5YfRJpcDBTi+Ip1OJqrQXSv+9DSUe9qIqKbiOGQiG4xAwzmsKSASmlX56U7h3kvPYT7n5mM2ZsTkB8Ui44PDMfzb47DxGmTMHN8D4SLVcy1bpXADeyvpUQDX1/3Mk68asT27I1mfkak7FiLHSlyce5JrFoTjwLPWuj3QH34yMVERLcKwyER3VoFWUjPNUpnGw/4eRev4zPi3JLv8MXSC9CFdcBb8//CjnU/4acvXsCLj/VHv05NUdthe/GNMY/jJZKasQiFOsc1fMaiQhSVqmy89furiuqIIe2CgdQDWL4jzdwUnnNkHVadLoRvkz64v67DOkciopuK4ZCIbil9dhpScqWY4xmKqPDi4SYbxzcfR5pJgzpDHsWoxn4o2c/CgLSEJOSIhHS94844oHD3hJd4oYJMXMpyMMaNpODSOVwsOTyi5DbsryIEHQe3RlVFBvYs34tLxmzsW7wVZ3UBaDWkI2qykzIR3QYMh0R0CxmQuHEDjuYCHjWboGmVYqccfRbOJWthEk2tQT52QUuSfxpr1sQhT3p486KhlL98whARoAKKkrFn70WUjodSIFuyHef08lOr27S/ga37oXe0Gum71mDd7u1YtOUiTFVbY2jnKjxhE9FtwXMNEd1ERhQWXhlTMPfYInz202Fo4YMmA3ugvoc8Q1AHIaamn3QSysOxFetwRAqQNroUbJg4Eb8fKzSfpG7qJYc+MWjfNETabg52/zYdK84Wj4eFSPhrEj5bmQ6Vffq7XfvrUx/974uBe9YRLP19BXYmKxDZoy/aBMvziYhuMYZDIrp5TCn4641/4f4hz2LE/YPRYdBXWHvRCL+WD2Hc8Jp2vYp90XJEP9zjDeTs/Qlj+jyNF979Dh+Oex3D+zyMZ2YWot9Yy0DWUtwyr3FzBKLjY4PR3EfKdAkr8MqAMRj57CcY/8F4PDl4FAa8sQ0hg/qjua+8uM3t2l8PNLi/l/Q62di1fBcuaaJx3wP3wE+eS0R0qzEcEtFNpIAyNxUnDhzAnmMXkW30Qmy//8MvUx40hyp73s0exoTPR6NNuAaFSYewdMZM/DJnG46bGuP/pozHow384O2hgbun2i5uKaDx8ICbuwfcVXJRKQqoPaX5bu5ws1vGo8EYfDf5cXSu4QFTznnsXvUXpv26An/He6Dr65/h89E14Sdt29PHC+7F2oivf38BlZsb3DRqqCqQGzUxnTHwXksc9G7UE/c3LF7lSkR0ayliYmJN0dHRGPFZOnoEzYPJeCN/8RLR3c5YmIOU8+eRpHVDaFQkqgdoSgUleyZ9AbJSLiIxOQ+eYdUQWc0fHuJPV5MJeoOUzhRKqO0CnslghJilVClhP0KOlckoLWMUqyshLVaasQgZ5xORcCkfSv9QREVVRYDcZ8aoN0J0WHa0/Vu1vzb6c/j9sSfwvy1Axw9/xs8jq6HMDExEdB0UShPWpg/F7NeCEB8fLxWIkRwstxcocbpUKm/iQLFEdFdSuvuiSmx9NG8SixoVCIaCQu2BgIiaaHJvA9SpIQct8wwF1OrSQUtQSCFLzCsvaIlQKJZxGAwFpRsCI2ujWcvGaFLnSjAUlOJ1y9j+rdpfq/yjKzFnTzaU4a0wrBuDIRHdfOVlvpLhUHWzbk5PRETXJxu7Zq/GiQI31BkwBJ3D5GIiopuoeOazXD0jfTWZzI9t4VD8MavWFFmeEBHRHWBC1s6ZmLD0AgzBrfCvB+/hHVGI6JYQma+shgxbOFQrPVGkuCg/IyKi2yVty6/479tf472XnkP/x2bgcEEoer7yPPpXL6s9nIjoxojMJ7KfI7Yzj697NRQYU+HmUeq2AEREdAuZMk9h7aw5+O2vA0hWRWHA25/h02E14CbPJyK6mUTWKzCmmbOfI1fCoVsEMgsT4eZZAIXC0vpMRES3XmCn5/HrnxPx+/w/sXXb75jwUF34VaDjChHRtRIZz13KeiLziezniC0cRvp3wjntbmjUgLuXuAEUERHdDmq/KqjfogXaNo1CmDebkono1hEZTy1lvXPaXebs54jtLBQT2BN6ow6J2dvgISVKkSqJiIiIyDWI1mGR8UTWE5kvOqCHPKckWzh0U/mgUdhIHLk8H+kFifDwzjVvhIiIiIicm6j085Synch4IuuJzOeuLnWfULMS7ReNwkajZkB3/JO+EBnSyl7SRkRI5DWIRERERM5HZDiR5UQwFNlOZDyR9UTmK0upi1taRDyDIK/62HHxe5zN2QlPLx18ArLYi5mIiIjIiYjs5i1lOJHlRKYT2U5kPJH1ymO7t/LatWvkIosjKTOlaRbUSg1q+LREgHsUPJShcDNVgV7nBqNBBaNRyXsxExEREd1h4l7J4pZ44s4nYoBrMY6hGKJQ9EoWHY7FNYaiKdm+xrBHj56Ii48Xd/+E+c7K4v7KZYVDoVCfg/jMtTibtQk5RUnIKbwgbTxfvs0KEREREVU2otpODHAtxjEUw9WIXsmi47HoX2LPUTgsd8wEhViyBAWDIREREVElZslqJTOcyVTxBFehZuUo37YI8awDH00YvDWh8hJEREREVBnl6lKh1aUgLf8kEnO231izcoE+A3uSJiMhcx0ah4xArYDu5nIiIiIick6npVx3KG22uaey6JDioQ40l1eoWVkEw/S8Y+gQ8RKDIREREZELEJlOZDuR8UTWK0+JcCiakq01hmFe9eVSIiIiInJ2ItuJjCeynsh8ZVGaYPlP9EwW1xgyGBIRERG5JmtAFJmvyKA1Z0BzFxbL/2a2mkMxZI3ofMKmZCIiIiLXJbKeyHxxGaWHMRRs4VCMZSh6JRMRERGRa4vybWfOfo7YwqEY5FoMV0NERERErk1kPpH9HLkSDguTzOMYEhEREZFr89GEmrOfI7ZwqDPmcYBrIiIioruAyHwi+zliC4dERERERAyHRERERGTDcEhERERENgyHRERERGTDcEhETsFkNMBgMMBoHcKfiIhuCYZDIqr8dCfxbd82CI/og+eWpcmFRER0KzAcEtF1KsS+z0ahdo0WqFHOVLPJC5h51iivc/30hQXI1+ZAWyQXEBHRLcFwSETXr0CLtPRMpJc3ZeZDLy9ORESVH8MhEd2w0L7vY3vcHpw/X3pKPPglhkXwVENE5Cx4xiaiG2bS+CIsPACBgQ6mAF94quUFiYio0mM4JCIiIiIbJTgsBBHdMIX8veKM2Wew8vsP8VDfIWjdoh869XkWL321EkcyDPISZZDOWSYYkXPqb3z/6r/Rr+sAtGk/HAMf+wK/br2IQnmxEnQXsHrSRHz00WT8uDkFJlMeTi2ZjH+PfBQDRr2P6UfyYUrdhZ8//R6ffr0Aey7L69nL3I8ZX0jLTJiNrRdLd7LRpZ/C6h+/wNPDRqNTm35o0/VRjHnmM0z5O/na92vkm/jfZ5Pw2aeT8M3848iVV3EkY+8CfCXt++dTNyORHXaI6BqZzOdVmfSENYdEdJsZkLrhS/S5py+GvDYNC/4+hH9OnMLezasx9e1/o13TR/Dpjqwy/2415Kdg28Rn0KrN43h90kr8vecYDh/YhzWzfsBzvXuj04urcE4nL2yTi6Nzf8SHH/6KtafPYfm4kegw8ktMW7IF65ZvxfEcEVZPYN5XE/CBFFBPFjh+dZP2DBZOmID3P1mMg9riy+hw7Ofn0LxuXwx68QfMWL4b+/45jaO7t2DRb1Px8v190P7ZZUi8lv1asQcpGdvw9ftf4Z33/sTOLHkVe6YUrP/mC/zv/UmYf94bwW5yORHRdWI4JKLbKmfndxg+ajK2XnZH3RHvYOWB7Ui+tA/xe3/EWz2rQJW2Ax8/Nh6Lkx0Nf2OCdssUPP/5IVQd+ynWSusmXdyPuIN/4ruH68FHCltHfhyHx78/hnx5DStrlCvc/xv+Oy0dLZ99B78v/QOLJj+Ce/2uBD3xF/T10GVcRo5/I4x67ztsOLILF1MO4eLZNVjwZgdUUebi2IyP8e6y1FKht+z9ehTdej2AzmEK6BM2YeFux+nQmLQd8zanwujTEMOGN5KOARHRjWE4JKIbpk87itWLVmHx4tLTmkMZsDUU5x3Gd6/9hF05Hmj0/BSs+/lhdKwdAh8vH4TV64pxMyfjjVbe0CWsxNczjqNAXu2Ky1j/527Ufvd3LP9iMNrUDoWftw/Ca7XE2Em/Y97z9eGBbGz74WesTZVXKUGLw39fQKsJf2De5w9jUNfW6Dl6NIY29JLnXy8FvFs+iSW75+OnV/qgVXQgfDzc4R0Ujd7jPsKHfUOgMF7Clr8OSO/AEcf7Naxrd4zpXgVKQxLWLziADHnpKwxIXL0Ym1NMCGw9EAPrsdqQiG4cwyER3bDMrT/imTHPYfRo++llvLPoHKyXwaVvnokZ+/Ohju6P915pi0D7SxW9GuHBx1sjCPk4tnYnEh0MkOjTeizeHhMrhUA7igC0//cT6BOugPH8dizckS7PkJmrBAuR7dsBTzwQVXr9G6JGbOduuCfQwSlVGY7W3erCFyZkn01Emn3Tcrn7FYSOD3ZHrNqAc+uXYbt9stQlYMVcKTQqQtFZWi6GvcKJ6CZgOCSiG+YV2xZDRz6AUaMG2k33oXOst3yiycepLYeQbFAgrGlLxLoXoqDAbiosgDK4KoKlkJN39gTic8wrFuOG6I5tUKuMZKescg/a1fGSAlcmTh2165yiEElUg+huXdDQ21J0yxj1yM24hFMHdmHFnNmYt19rPgb6vFzk2fe3ucp++bcciIEN3GG4sA3zt5VMh0Wn1mPB3myoIrvgoe7h19EtiIioNIZDIrphXo1G4NOfv8RPP31RavpkTCzczUvlIflsOopgQvLicWhRrTHCw+2msKaoN/xPnNZL+apAi5xSPW+9UD02VN6eA6oAREZ4SyFJj+zUbJTq/wEPhEUG3+RaQ5lJCr9Lf8BzgwagXo2miIjsgKbtR2Po2Hfw7vSDyDQvU9YFjeXsl3dDDB/RCD7GFGxasAcpcjFQgCMLl+GAVoPaAwahfbBcTER0gxgOiej2MBUhN1fENQW8w2uibt1ajqd6tdGgYV00qBMMT6N9mFLBTaMsp4ZMh4ICg7mTh1KjshTJLOu4wd/f/eaf+IriMWNsP7Qd+QV+XXsGecF10WPkIxj38Uf4bdFMrJzYD1XFDphrCUu6+n5pULf/A2gdYETypqXYdFE+Jtp/sHjpaeR71cOQEY3hayklIrphDIdEdHso3OHr6yaFIQWCeryBlTuXYdeusqfdq9/D/eZEVZwROoOpVI9fG10WLlzKkx64ISDUX/pacQqFFDrFyxmKUKBz/ArGokIUlhqG0YCEuZ/if/POoqhqN3y2cSviDs3H/B/fwlv/NxxDerZC/dCSQfVaqWK648EuocCl3ViwKcX8/rP3L8Nfxwrg12Ighja6JXWhRHSXYjgkotvEBzXrV4WnFPDS4+KR4qCzydXl4tzJSw56MVsYU45hd3yhdGYLRv17wq4tHLp7wVsjPShIR3JG6QZpIT8pAUn2Y+QgC4fXHUaKyQ0NHnwO/7o3ACX7heiRcuYcskWiu95xchTh6D6mI6orLmPbgh1IMmZix+wNiNMFocODPVBL7DcR0U3CcEhEt4kbYtq3QJSU2LS7Z2PqZvNVeNeoCCeXLMEuh6sW4PAfv2HNJSPUUe0wsEWAXF4xCr8qqBGkAgrPY9uOCw6uV5QC2dyNiLcPtfoMJJzPgQka+Af7Sl/t5B3HkiUnzXc4uc5oaBbccQgeqK1G2pYlWL71b/y57gJM1TvioV7VeCInopuK5xQium18Wg7D2Lb+UsY7gxkvv4spezOvjIEo06Ufxe/vfoG5p0u135oVHJuFl1+fj39K3KGkEGfmvI/HvjgohTA/tH3iIXQMkmdVlG8ddGsZJp0Us7Ft8mQsjC/eG6YAp+d8hncWpUFtP1yMOgR1YgOk9XJxaOFy7NfK5UJRMlZ+9BGmHi4wn2wdXHJYcb6NMWxQHXhkHMC8qQux+bwCMf0Go3OoPJ+I6CZhOCSi28etFp745g0MrKFG3qmleLl7DzTr+hj+9bIUvMa9hQf79EbtOoPw1JRDyHAYpILR87FewII30aX5ANz/yFt49f9eQN9WXdH2sTk4lqtCjYGv45un6sNTXqPigtH9+TFo4yuy60I83u4+9Br9X7z26msY1rk32j+zEWGjh6O1lG1L8kf7sUPQ3AfI3vEN7msxAo+8/AneePZp9GjZHyN/KsSQ53ogzPx+biQdeqLx0AHS62Riy4ItSHarjYEjm0uvTkR0czEcEtF1U3p5wdvNEwE+FR992a32MExb9zPeH1wHgcjCmV1/Y/aUqfhy4iws3HIOxqiOeOGbtzAqungnDgXUHu5w9/JBcNunMOvXJ9ACcdg4bxYm/bwMfx9NRaFPDPq/8xPW/jICdR30z1C5S+u7qaEqJ595NnkCv896Ab1qesKUnYiti2fj+0kLsfqUJ/qMn4Kpj8ciwMMTXn7ecC9WcenT6mlMm/o4OkW4oeDcXsyb8hO+nb4Bh43N8eaciXiuSQB8Pd3g4akuFQ8rsl9WbnV6YVRbS3O5T7P+GNbk2iMwEdHVKKKjY0zRMdEY+VkGxtSbIxcTEVWA0WDuPaxQqaBWXnutmEGbioSEZFzKLITGNwhVo6ojIsDxkC4mgwHSS5lfyxykDPm4FB+P+JRCeIZURXR0OPw0Ze+DdX2ltP5Vd9VYiMuJcTiTlAtlYBXExFRDkIdYyQSj3ghx12dH2zHp85GRfAFxF3LhVSUS0ZGB8BRvxmSE3rzzSqjtUuA17Zc+HlMHDcVL6xXo8e0CLPhXJG6sHzQR3c3+OD4cs14LRFxcPBQKhWWSyhkOiYicRN6er9Gzz3c4FNAPv275GkOqXC1NEhGVraxwyGZlIiKnkIktv/6FI/nuaDDiQfRiMCSiW0RpvmzG/IWIiConIzI2/4QP5p6FIbQ9nn+yOe+IQkQ3hy0DSg9MlpsM2GoONUov5OpS5WdERHSnpaz7Hs+/8AH+M3YM2g2egn354ej/3jgMi+KVhkR0Y0TmE9nPEVs49HWPgFZ35ZbuRER0Z5kyjmHpL9Pxw5zdOK+KxfDPp+CHh6PhLs8nIrpeWikciuznyJVw6BaBtPyT8jMiIrrTgnuOw1+rfsPyjatw6vQyTHuqEfx5qSER3QQi84ns54gtHEb6d0Jiznb5GRER3Wlq/2q4p107dG4Ziyo+bEomopsnMWebOfs5YguHMYE9oTfqcDpznVxCRERERK5GZD2R+aIDesglJdnCoZvKB43CRuJQ2myk5B2TS4mIiIjIVYiMJ7KeyHzuasfjHtjCodAobDRqBnRnQCQiIiJyMdZgKLKeyHxlKREOhRYRzyDIqz62JE1gEzMRERGRCxCZTmQ7kfFE1iuPomZ0jCkmOhrr1q2ViyyOpMyUpllQKzWI8m2LEM868NGEwVsTKi9BRERERJWRGMdQDFEoeiWLDsfiGkPRlGxfY9i9ew/ExYvb50mhUNw8T9xCr6xwKBTqcxCfuRZnszYhpygJOYVJ0Bnz5LlEREREVBmJAa7FOIZiuBrRK1l0PBb9S+w5CoelmpWLEzdgJiIiIiLnZjJV/F7JbFYmIiIicjE3tVm5QJ+BPUmTkZC5Do1DRqBWQHdzORERERE5J9EhxdpTWXRI8VAHmssr1KwsgmF63jF0iHiJwZCIiIjIBYhMJ7KdyHgi65WnRDgUTcnWGsMwr/pyKRERERE5O5HtRMYTWU9kvrLYwqHomSyuMWQwJCIiInJN1oAoMl+RQSuXlmQLh2LIGtH5hE3JRERERK5LZD2R+eIy1sglJdnCoRjLUPRKJiIiIiLXFuXbzpz9HLGFQzHItRiuhoiIiIhcm8h8Ivs5ciUcFiaZxzEkIiIiItfmowk1Zz9HbOFQ3BaPA1wTERERuT6R+cq6JbItHBIRERERMRwSERERkQ3DIRERERHZMBwSERERkQ3DIRHRLWYyGmAwGGA0yQVERJUYwyER0a2kO4Vv+7VBeEQfPLc0TS4kIqq8GA6J6A4oxL7PRqF2jRaoEdkWnd7cgWx5TkXl7pmIXrVaSuu3wb1jFyLeKM+ohAyFBcjX5kCrkwuIiCoxhkMiujMKtEhLz0T65VTsm/0HVidfS5trOjZMmYftyRnS+mlISsuXy4mI6EYxHBLRHaSCT3AA3C9uxo9zz6BILr0a/ekVmLI8GR7hofBTyIVERHRTMBwS0R2kRNV2rVDHXYvdv83FLq1cXK487PltFrZl+qJW8yj4yaVERHRzMBwS0R1khDKgPprFuKHwxFL8vDYNV2tcNqVsxtTZJ1Dg1xAd60nrsQcwEdFNpYRJnFl5diWiO0OviEL/YU3ga7yEVVNX4LRenuGQHqfmzcCK80C1HoNxf5RGKimbLv0UVv/4BZ4eNhqd2vRDm66PYswzn2HK38kolJcpQXcBqydNxEcfTcaPm1Ok02MeTi2ZjH+PfBQDRr2P6Ufsrm00aHFq3Sy89/STuK/rALRqMxg9BzyPVyeuxsFUB71PpPOtCTqk7FmEdx8bix7t+qF1xwfx8LiZ2Hyhoo3qREQ3k5QBRRa0/G/GmkMiuoNMMKiD0HrMKPSookTWzjmYsdfxjeDNtPsx/dd9yHavhSGPt0dQfr4UtRzR4djPz6F53b4Y9OIPmLF8N/b9cxpHd2/Bot+m4uX7+6D9s8uQWGrlXByd+yM+/PBXrD19DsvHjUSHkV9i2pItWLd8K47nyItJCk4vwf916ox7B7yFz2asx6bdx3H86GFsW7cCk8a9gbf/ugj7DtT67AQseeshtOr5Kr6YvQU7D53AkX07MH/iO+jb+hF8UrF2dSKiW4rhkIjuKJPRBFX1rnhySAzcCk5gzk/b4Xg0QBMurfkDc/4pgl+r4Xi0XTDc1fIsB3QZl5Hj3wij3vsOG47swsWUQ7h4dg0WvNkBVZS5ODbjY7y7LNX2l7KV9Xnh/t/w32npaPnsO/h96R9YNPkR3OtnmauLW4gn+r2Cnw9kw7NuP4xfsAJxFw/hUvJunNwzHRMeb4EID/OixRiQse4HvPlnDrp9MB37zuxF8oWt2PHbY2gVqIQxYzcmvDkTRxxWaRIR3T4Mh0RUCfii9SND0dLXiPMrfsdfcQa5vJii05j9w0YkIQw9n+iLOhqg7I7KCni3fBJLds/HT6/0QavoQPh4uMM7KBq9x32ED/uGQGG8hC1/HcBleY2StDj89wW0mvAH5n3+MAZ1bY2eo0djaEMvQJ+A6S9+iIXnjQho/yKWbPwaL/WujXAfD3j6BKBa/fZ48pupmDSquu0Ea756BxnYvOI8enw/HT/9ux3qhPvBxz8c9wx5DTO+6oVw6c1oD63B6jMcDJGI7iyGQyKqFNwb9McTPcOkDLUHv8w8CvvG5eyds/HrTi3c692PJ3uFlRMMBTViO3fDPYEOTnHKcLTuVleKoyZkn01Emn0WMye5QmT7dsATD0TBvgJQu2s2pm7JhMmnBV7/+km0KmMsHaXSvlyB0B5P4z+9QuxOvCpU7z4YPWuogLwLOHKGTctEdGcxHBJR5aAIR+8n+qKuWz4O//knNqfL5YLpElZNWYaTOh+0fHgYWvnK5RVl1CM34xJOHdiFFXNmY95+rfnkp8/LRZ59JaVChDoNort1QUNvS9EVRYjbvBPxhUBA20F4oJ5GLq8Id9Rs1QDhjs66PuGIDFJL77MI2dmFpZq6iYhuJ4ZDIqo0/FqPwCOtfaFPWIOpS8/bOnQUHVuCqWtSoajaCU8MqwU3ubxcpnycWvoDnhs0APVqNEVEZAc0bT8aQ8e+g3enH0SmeZmyYpgHwiKDS9Uaig4rZ09eQj7UqNqoNkIreAY15014IaJGoON9V/sg2M9yAaXRWInvA0hEdwWGQyKqPNxrYejjHVBVkYnNPy/CIfPIMdnY+tNs7NaqUWvQaPSqWn6DsllRPGaM7Ye2I7/Ar2vPIC+4LnqMfATjPv4Ivy2aiZUT+0mvIS1nSW0lWErc4O/vXvoEaSpAVpao2VPB08dD+notpC1XYNeJiO40hkMiqkQUiOj9EIbVc0Pu/vn48e8MGM6vx5QFCdD5NMOjY++twB1RDEiY+yn+N+8siqp2w2cbtyLu0HzM//EtvPV/wzGkZyvUD722WGejcIevr5u0l0W4dDoJvDqQiFwRwyERVS6+TfHww03hZ7iAVdNXYfWCBdiUCoR1H4Wh9StyjV8WDq87jBSTGxo8+Bz+dW8ASo54o0fKmXPIFi3KZTYrl8UH0Q2qwhMmZCWcxkUOO0NELojhkIgqGTfUG/YgekcAFzfOwKfT9iNLE4MhT3VBtYo0y+ozkHA+R4pvGvgH+0pf7eQdx5IlJ5ErPbz2jh9uiOnSAXU8Ae3O6Ri/4AIcDLpDROTUGA6JqNJRVO2Ix4bEwi37BHafzIdPi8F4tM3VG5TN1CGoExsgndxycWjhcuwv3vZblIyVH32EqYcLzCc/B5ccXpX3vaPwcv9qUBtTsOyNl/HW4rMoeVM9I7KPrsOfm5LZ65iInBLDIRFVQr5o/ehwtBJ5UBGCbk88gAbuljlX54/2Y4eguQ+QveMb3NdiBB55+RO88ezT6NGyP0b+VIghz/VAmDkYXkc6VFbB4C8/w8ttAmBK24uJD/ZDw5ajMPKZ8Rj3wosY2Lk76nYYhwWJjIZE5JwYDonojlB6ecHbzQt+vo47h7jV7Yen+9dEcKMBeLpPFccnK40b3DXu8PMuOUCMT6unMW3q4+gU4YaCc3sxb8pP+Hb6Bhw2NsebcybiuSYB8PV0g4enulQ8VLm7w91NDVU5uVER1Br/WzIPv7/SBbV9ipDyz24s+e1XTPxpKdbsS4Pfvd3QuZaHbdvmbXr5wKecSyZVHp7wEMtUaJweIqJbR1GzZrQpJiYaIz/PxJh6c+RiIqJbzGiAzmCCQqWCutTdRGTSMnopFpY532SEXmxDqYTKwTImfT4yki8g7kIuvKpEIjoyEJ4iZcrrSStCbZcCTQYDxCyltF9lvWwJ+jxcTEjE+bQCqAJCERERhlA/txJh1rpN8V7LCp0VWYaI6Gb64/hwzHo1AHFx8VCI62ykSXxnzSER3RlKFTQaddnBT5CWKXe+CHdqKUyVsYxC7YmgGrXQok0TNKgpB0PzDMt69sFQMIdVaV6FgqGg9kKVWvWl12iGZvWqI9wuGArWbZZbG1mBZYiIbgeGQyIiIiKyYTgkIiIiusvZutCZTFfCoUbphVxdqvyMiIiIiFyVyHwi+zliC4e+7hHQ6lLkZ0RERETkqrRSOBTZz5Er4dAtAmn5J+VnREREROSqROYT2c8RWziM9O+ExJzt8jMiIiIiclWJOdvM2c8RWziMCewJvVGH05nr5BIiIiIicjUi64nMFx3QQy4pyRYO3VQ+aBQ2EofSZiMl75hcSkRERESuQmQ8kfVE5nNX+8qlJdnCodAobDRqBnRnQCQiIiJyMdZgKLKeyHxlKREOhRYRzyDIqz62JE1gEzMRERGRCxCZTmQ7kfFE1iuP7d7K69aVDIJHUmZK0yyolRpE+bZFiGcd+GjC4K0JlZcgIiIiospIjGMohigUvZJFh2NxjaFoSravMezevbv53srW+yqLO3iWGQ6FQn0O4jPX4mzWJuQUJSGnMAk6Y548l4iIiIgqIzHAtRjHUAxXI3oli47Hon+JPUfhsFSzcnFiISIiIiJybiaT7QZ5V8VmZSIiIiIXc1OblQv0GdiTNBkJmevQOGQEagV0N5cTERERkXMSHVKsPZVFhxQPdaC5vELNyiIYpucdQ4eIlxgMiYiIiFyAyHQi24mMJ7JeeUqEQ9GUbK0xDPOqL5cSERERkbMT2U5kPJH1ROYriy0cip7J4hpDBkMiIiIi12QNiCLzFRm0cmlJShPEfzAPWSM6n7ApmYiIiMh1iawnMl9cxhpzBrT0Y77yyFZzKMYyFL2SiYiIiMi1Rfm2M2c/R2zhUAxyLYarISIiIiLXJjKfyH6OXAmHhUnmcQyJiIiIyLX5aELN2c8RWzgUt8XjANdERERErk9kvrJuiWwLh0REREREDIdEREREZMNwSEREREQ2DIdEREREZMNwSER0C5mMBhgMBhgtY8sSEVV6DIdERDckG4f//AJPP/ctFp7Ml8tkulP4tl8bhEf0xtOLU+RCIqLKjeGQiJxIJta+MQix1VsiuvVbWFYJ8pbpwgZ8NG4KZvz6LcZ9thWpcrmVobAA+docaHVyARFRJcdwSETOI2Un/lhwFBczMpBydA1mrE+GUZ51pyjC7kHv9tXh6x+Fdj0bIFguJyJyVgyHROQkjDi/biE2JCkQ27IxQhSXsWXmBsTp5dl3iiYGj/6xDhfOrcYvIyJ4UiUip8fzGBE5B30iVszcg1QE4p5endAwUIGMnYux9ESRvMCdpIRKpZAfExE5N4ZDInIKhSfWYPauTCirtMbgUf0xpGUgFNqjmLfgOBzfAIqIiK4HwyEROYF8HJ6/DAe0SkR06Y9O0dG4b0RLhCoK8M/iJdibIy9mr+gC1k6dhI8//gHTtqdJBUbknNqA7175N/pJ22ndbij6j/0cv25ORoFljZJ0F7B60kR89NFk/Lg5BSZTHk4tmYx/j3wUA0a9j+lH8gH9GSz9ehI++eR76TUy5RWJiJyXJRxy/C0iqsyyD2Lu4lPIV0Wg27AWCJVOXRFdB6JbNSUKT67BrLJCmSIXh/+cjPHjp2Hl8QvY/M0zaN3mSbw+eSX+3nMcRw4ewPo5U/Dcfb3Q4fmVOFuqR3Eujs79ER9++CvWnj6H5eNGosPILzFtyRasW74Vx0UoNRlwcvEkfPDBDKxLYpdkInIy5gwofRH/W76x5pCIKr/07Yux9FQR3GK6YkSbAEthaEuM6FENKkMSVs/cgUvmE1xZTMjdPhXPfrQP4Y9+irUHtiM5ZT/OHJiJ7x6tDx/k49gvb+LJycelRyVZN1u4/zf8d1o6Wj77Dn5f+gcWTX4E9/rJc8t9bSIi58JwSESVmykFG2duwlmDBjH39UULf7kcAWgzrDNi1EYkb1iANeccD2pjyW3p2DBrH+p9OAvLvxyMtrVD4evlgyq1W2Hsd79j3v/VhyeysfX7H7EmxVHS0+Lw3xfQasIfmPf5wxjUtTV6jh6NoQ295PlERK6D4ZCIKjXj2U2YuSEFRo9aGDC4EXzkcsGvxf3oV9cNprQ9+HN5Ihw26op2Eolvq0fx9phYKQTaUfij/bOPo1e4AsYLO/HXbrsmavP6hcj27YAnHoiCh6WUiMhlMRwSUSWmx5nli7H1sgnejfrggXvsop1PQwy6v5a51m/P3FU45qhXiUIMMeOGmh3bonapZGihrNIYHet4S0EwHUf3nS/ZOcW8vgbR3bqgobQIEZGrYzgkosqr4BQWzT0oRT8PRDeugowDe7Ft254r0/YjyI68BzWl0Kc9sAzzD9lfMWjljai64WXX+qn9Ua2qFxQwIC8rT4qk9jwQFhnMWkMiuiswHBJRpZV7UAp8B8UohgU48svruL/7CPTsOfLK1GMU+j83G8dEJpSC5F9zDiDLvKY9JdQqhRT+yqJHYaHBfH2iQq0ssZzlsRv8/d15wiSiuwLPdURUSWVj95zVOF4A+NRsis7dOqBbGVPXeyPgIQW8uOWLse2yvHoJJhgd9TOx0mXi/EURQjXwDfSRvhIR3b0YDomockrbbelkoghBj/99j2VLfsWSMqbFv7+I7iEK6OXOK6VzoBbxx5JLDVNjZbx0DHsSC6UzYggaN4+Am1xORHQ3YjgkokrIhOQNC7HmnAHKqm0wtHN4OU3CgKpGR4zqEgqFKQV/z/wbiQZ5hmDubVyEk0uWYGeGpaikAhz+83esvWiEKqodHrgyVg4R0V2J4ZCIKh/DeawyD2ytRETn+9ExXC4viyIUnUd1Qg3pjHZ5+yIsPV2sS4m5t7EUD0/MxWv/XYhj2uL1ioWIm/sBHv/iALTwRbvHH0LHQHkWEdFdiuGQiCqdolNrLbfEU1pulxcil5cnqN0A9I1VA9mHMG/RCbsm5BD0frIPMO91dG42AP3H/g+vv/gi+rbphrb/mo1/tCrUeOANfPO0GAybiOjuxnBIRJVMAY6u+htnDO7wrd8Nw1rLt8u7Gr+mGDa4AfzdjDi7cSMOa+VymUfLpzFrxjNorYrHxjl/4Lsfl+Lvwyko8I5G3/9OweppI1DXwVg1Knd3uLupoSqnXVuh0cDN0x1uDpYxr+/lA2/2ciEiJ6GIqlnTFBMdg1FfZGJMvTlyMRHRnWMyGKA3mqBQqsxD0FSYyQiDwWRuSlaqlFDoTuKrXkPw9i5vDJ6xFDMGhwCGfFyKT0D8pXx4hlVDdM0w+GnKfg2xL2KTSpUKSoeLmWA0GM29oRXSMva7a13f0Twiojvpj+PD8ecrAYiLj4N5sC/p3KkQ5095PhFRpSGClEajvrZgKCiUUKmlECaCoVxUisoT4bXqo0375mhSO7zcYCiIfVFL23QcDAURRC3LONpd6/oMhkTkLBgOiYiIiMiG4ZCIiIiIbJTW0WI1Si/k6lItT4iIiIjIZYnMJ7KflRwHJaYrNYe+7hHQ6lLkZ0RErsF8raBSyWv+iIiK0UrhUGQ/R66EQ7cIpOWflJ8REbkAdSRG/7QIe3fPwP86+smFREQkMp/Ifo7YwmGkfyck5myXnxERuQCFB8JiYlGvXiyiQ3jHZCIiq8Scbebs54gtHMYE9oTeqMPpzHVyCRERERG5GpH1ROaLDughl5RkC4duKh80ChuJQ2mzkZJ3TC4lIiIiIlchMp7IeiLzuat95dKSbOFQaBQ2GjUDujMgEhEREbkYazAUWU9kvrKUCIdCi4hnEORVH1uSJrCJmYiIiMgFiEwnsp3IeCLrlUcRFVXTFBMTg/XrSwbBIykzpWkW1EoNonzbIsSzDnw0YfDWhMpLEBEREVFlJMYxFEMUil7JosOxuMZQNCXb1xh269bdfG9lcStQcV9l6f+yw6FQqM9BfOZanM3ahJyiJOQUJkFnzJPnEhEREVFlJAa4FuMYiuFqRK9k0fFY9C+x5ygclmpWLk4sRERERETOzWS6cg+Uq2GzMhEREZGLuanNygX6DOxJmoyEzHVoHDICtQK6m8uJiIiIyDmJDinWnsqiQ4qHOtBcXqFmZREM0/OOoUPESwyGRERERC5AZDqR7UTGE1mvPCXCoWhKttYYhnnVl0uJiIiIyNmJbCcynsh6IvOVxRYORc9kcY0hgyERERGRa7IGRJH5igxaubQkpaXvisk8ZI3ofMKmZCIiIiLXJbKeyHxxGWvMz0t0ZJYe22oOxViGolcyEREREbm2KN925uzniC0cikGuxXA1REREROTaROYT2c+RK+GwMMk8jiERERERuTYfTag5+zliC4fitngc4JqIiIjI9YnMV9YtkW3hkIiIiIiI4ZCIiIiIbBgOiYiIiMiG4ZCIiIiIbBgOiYiIiMiG4ZCIiIiIbBgOiaiSK8S+z0ahdo0WqBHZFp3e3IFseU5F5e6ZiF61Wkrrt8G9Yxci3ijPICKiUhgOiajyK9AiLT0T6ZdTsW/2H1idXPxGoFeTjg1T5mF7coa0fhqS0vLlciIicoThkIichAo+wQFwv7gZP849gyK59Gr0p1dgyvJkeISHwk8hFxIRUZkYDonISShRtV0r1HHXYvdvc7FLKxeXKw97fpuFbZm+qNU8Cn5yKRERlY3hkIichBHKgPpoFuOGwhNL8fPaNFytcdmUshlTZ59AgV9DdKwnrXctrdFERHcphkMichp6RRT6D2sCX+MlrJq6Aqf18gyH9Dg1bwZWnAeq9RiM+6M0UknZdOmnsPrHL/D0sNHo1KYf2nR9FGOe+QxT/k5GobyMmTEdO2f+iM8+nYRv5h9HrlzsSMbeBfjq0+/x+dTNSKxoOzgR0R3GcEhETsIEgzoIrceMQo8qSmTtnIMZex3fNN5Mux/Tf92HbPdaGPJ4ewTl50MnzypJh2M/P4fmdfti0Is/YMby3dj3z2kc3b0Fi36bipfv74P2zy5DonVlpT+CtVvw9ftf4Z33/sTOLLncnikF67/5Av97fxLmn/dGsJtcTkRUqVibVKTvJstjhkMichomowmq6l3x5JAYuBWcwJyftiNNnleSCZfW/IE5/xTBr9VwPNouGO5qeZYDuozLyPFvhFHvfYcNR3bhYsohXDy7Bgve7IAqylwcm/Ex3l2WKp9CVYjtNxidwxTQJ2zCwt2O06ExaTvmbU6F0achhg1vBB+5nIiosmM4JCIn44vWjwxFS18jzq/4HX/FGeTyYopOY/YPG5GEMPR8oi/qaICyOyor4N3ySSzZPR8/vdIHraID4ePhDu+gaPQe9xE+7BsChfEStvx1AJeta1TriDHdq0BpSML6BQeQIZdfYUDi6sXYnGJCYOuBGFiP1YZE5DwYDonI6bg36I8neoYBGXvwy8yjsG9czt45G7/u1MK93v14sldYOcFQUCO2czfcE+jgdKgMR+tudaU4akL22USk2dqlg9Dxwe6IVRtwbv0ybLemRitdAlbMlUKjIhSdpeViyqm1JCKqbBgOicj5KMLR+4m+qOuWj8N//onN6XK5YLqEVVOW4aTOBy0fHoZWvnJ5RRn1yM24hFMHdmHFnNmYt19rPlHq83KRV6yS0r/lQAxs4A7DhW2Yv61kOiw6tR4L9mZDFdkFD3UPv0o4JSKqXBgOicgp+bUegUda+0KfsAZTl56H9Y54RceWYOqaVCiqdsITw2qhQg26pnycWvoDnhs0APVqNEVEZAc0bT8aQ8e+g3enH0SmeRm7cXC8G2L4iEbwMaZg04I9SJGLgQIcWbgMB7Qa1B4wCO2D5WIiIifBcEhEzsm9FoY+3gFVFZnY/PMiHDLfFS8bW3+ajd1aNWoNGo1eVStQZ1cUjxlj+6HtyC/w69ozyAuuix4jH8G4jz/Cb4tmYuXEftJrSMsp7LelQd3+D6B1gBHJm5Zi00U5PGr/weKlp5HvVQ9DRjTGtVZcEhHdaQyHROSkFIjo/RCG1XND7v75+PHvDBjOr8eUBQnQ+TTDo2PvrcAdUQxImPsp/jfvLIqqdsNnG7ci7tB8zP/xLbz1f8MxpGcr1A9VycuWporpjge7hAKXdmPBphRzb+bs/cvw17EC+LUYiKGNPCwLEhE5EYZDInJevk3x8MNN4We4gFXTV2H1ggXYlAqEdR+FofU18kLlycLhdYeRYnJDgwefw7/uDUDJviN6pJw5h2yR+uyblQVFOLqP6YjqisvYtmAHkoyZ2DF7A+J0QejwYA/UqsguEBFVMgyHROTE3FBv2IPoHQFc3DgDn07bjyxNDIY81QXVKtILRJ+BhPM5MEED/2Bf6audvONYsuSk+S4oDqKhWXDHIXigthppW5Zg+da/8ee6CzBV74iHelXjCZaInBLPXUTk1BRVO+KxIbFwyz6B3Sfz4dNiMB5tc/UGZTN1COrEBkgnwlwcWrgc+7VyuVCUjJUffYSphwvMJ8pSlxxa+TbGsEF14JFxAPOmLsTm8wrEiEGyQ+X5REROhuGQiJycL1o/OhytRB5UhKDbEw+ggbtlztX5o/3YIWjuA2Tv+Ab3tRiBR17+BG88+zR6tOyPkT8VYshzPRBmDoZlpUNPNB46QNpGJrYs2IJkt9oYOLK5tGUiIufEcEhElZ7Sywvebl7w83XcOcStbj883b8mghsNwNN9qjg+sWnc4K5xh593ycFtfFo9jWlTH0enCDcUnNuLeVN+wrfTN+CwsTnenDMRzzUJgK+nGzw81WXGQ7c6vTCqbYD5sU+z/hjWxNP8mIjIGSkio2qaYmOiMeqLLIypN0cuJiKqRIwG6AwmKFQqqJVlRDRpGb0UC8ucbzJCL7ahVELlYBmTPh8ZyRcQdyEXXlUiER0ZCE+RMuX1pBWhVpWxbX08pg4aipfWK9Dj2wVY8K9IlN3HmYiocvjj+HD8+Yo/zsTFmy+dUYj/pAesOSSiyk+pgkajLjv4CdIy5c4X4U6tchgMBYXaE0E1aqFFmyZoUFMOhuYZlvXKDIaSvAOLMX17FpRV2+PhvjUYDInIqTEcEhHdkExs+fUvHMl3R4MRD6JXlXICKhGRE2A4JCK6bkZkbP4JH8w9C0Noezz/ZHPeEYWInJ4UDi2jd2mUXsjVpZofExFR2VLWfY/nX/gA/xk7Bu0GT8G+/HD0f28chkWxQZmInIPIfCL7WVKg9FUezFV8s9Uc+rpHQKu7cut4IiJyzJRxDEt/mY4f5uzGeVUshn8+BT88HI0Kj6BDRHSHaaVwKLKfI1fCoVsE0vJPys+IiKgswT3H4a9Vv2H5xlU4dXoZpj3VCP681JCInIjIfCL7OWILh5H+nZCYs11+RkREZVH7V8M97dqhc8tYVPFhUzIROZ/EnG3m7OeILRzGBPaE3qjD6cx1cgkRERERuRqR9UTmiw7oIZeUZAuHbiofNAobiUNps5GSd0wuJSIiIiJXITKeyHoi87mrHY+vYAuHQqOw0agZ0J0BkYiIiMjFWIOhyHoi85WlRDgUWkQ8gyCv+tiSNIFNzEREREQuQGQ6ke1ExhNZrzyKyKgoU2xMDNavXy8XWRxJmSlNs6BWahDl2xYhnnXgowmDtyZUXoKIiIiIKiMxjqEYolD0ShYdjsU1hqIp2b7GsGu3boiLi7PdV1ncZLnMcCgU6nMQn7kWZ7M2IacoCTmFSdAZ8+S5RERERFQZiQGuxTiGYrga0StZdDwW/UvsOQqHpZqVizMvREREREROzWSSb4FSARVsVm4nNyuHslmZiIiIqJKzNCunys3K226sWblAn4E9SZORkLkOjUNGoFZAd3M5ERERETkn0SHF2lNZdEjxUAeayyvUrCyCYXreMXSIeInBkIiIiMgFiEwnsp3IeCLrladEOBRNydYawzCv+nIpERERETk7ke1ExhNZT2S+stjCoeiZLK4xZDAkIiIick3WgCgyX5FBK5eWZAuHYsga0fmETclERERErktkPZH54jLWyCUlKWGC+N88lqEY7JqIiIiIXJsYiUZkPzN5lBvrYDe2mkMxyLUYroaIiIiIXJvIfCL7OXIlHBYmmW+PR0RERESuTYxdLbKfI7ZwKG6LxwGuiYiIiFyfyHxl3RLZFg6JiIiIiBgOiYiIiMiG4ZCIiIiIbBgOiYiIiMiG4ZCIiIiIbBgOiYiIiMiG4ZCInIN2Hz7o1QGRNfvhxRXpciEREd1sDIdE5CQMyE1Nw+W0TOQYFXIZERHdbAyHRERERGTDcEhERERENgyHRERERGTDcEhETs+Uugs/f/o9Pv16AfZclgvtZe7HjC+kZSbMxtaLRrlQUnQB66ZOwscf/4Bp21JhQhGSdy7A//41Fj073I+2nR/B2HfmY3eqXl7BMWP2Gaz8/kM81HcIWrfoh059nsVLX63EkQyDvAQRkXNgOCQip2fMPoF5X03AB1IYO1lgkktLMmnPYOGECXj/k8U4qC22jCIPh2ZNxvjx07Di6BksfnMMWvV6DV/M2YodB47j0J6tmPPl6+jR/ln8cCRfXqk4A1I3fIk+9/TFkNemYcHfh/DPiVPYu3k1pr79b7Rr+gg+3ZElhU4iIufAcEhELsN0vQnMvJ4R2X//gFd+zUbvz2fiYPw+JJ/fjG2/jsW9/kroL6zH+HELcEpnXsMmZ+d3GD5qMrZedkfdEe9g5YHtSL60D/F7f8RbPatAlbYDHz82HouTi9VWEhFVMpbTp/RVOpEyHBLRXc9yUszA5uXJ6D/9T/z4ZCvUCvWBT0BVNBk2DjO/6oEwhbTEriVYcaZY83LeYXz32k/YleOBRs9PwbqfH0bH2iHw8fJBWL2uGDdzMt5o5Q1dwkp8PeM4CuTViIgqM4ZDIiJzPFSgSt9/45XuQdKj4pSo3ns47otUAblnceBUjlwOpG+eiRn786GO7o/3XmmLQPvhF70a4cHHWyMI+Ti2dicSy79skYioUmA4JKK7nsIcBz1Qo1kdhDk6K3oGIyJALWXIIuRoC+Waxnyc2nIIyQYFwpq2RKx7IQoK7KbCAiiDqyJYWjXv7AnEX8mVRESVFsMhEZG5xs8LEZGB0JgL7Gj8ER7oZn5o0FuvHcxD8tl0FElRMXnxOLSo1hjh4XZTWFPUG/4nTusBY4EWOUXyqkRElRjDIRE5CQP05h4nCqiU9u23d4CpCLm5oneKAt7hNVG3bi3HU73aaNCwLhrUCYan0VLnSERUmTEcEpFzyM9EWo5ROmt5wt+nZP2eQqGUJumBoQgFOscBzFhUiMKbOeSgwh2+vm7mJumgHm9g5c5l2LWr7Gn36vdwf9VKEGqJiK6C4ZCInII+8xIuivEJvcIRW9VDLrVQuHvBW+TFgnQkZ9iNNSPLT0pAkqNhCq+bD2rWrwpPGJEeF48UdjYhIhfBcEhETkCPM6tW4oAW8KzVEi2rqeRyC4VfFdQIksoKz2PbjgsoHQ8zsWPuRsTf1ADnhpj2LRDlBmh3z8bUzZlyORGRc2M4JKJKyICCAmuSM0F7+E+8PXEfcuCLFiP74R5PeZaVbx10axkmndCysW3yZCyML97zowCn53yGdxalQa2Wi24Sn5bDMLatP1B0BjNefhdT9mZKe16SLv0ofn/3C8w9zdvoEZFzYDgkosrHdBFznhmEtl1GoWfbLqjT6X0su2BEQPun8NGjtWDpN1xcMLo/PwZtfEVOW4jH292HXqP/i9defQ3DOvdG+2c2Imz0cLSWctxN5VYLT3zzBgbWUCPv1FK83L0HmnV9DP96WQqj497Cg316o3adQXhqyiFk8HJDInISDIdEVAkpoNRewpHdu7Ht0AVkGbxRd8ibWDj7STT3kRex49nkCfw+6wX0qukJU3Yiti6eje8nLcTqU57oM34Kpj4eiwAPT3j5ecO9RJ8VBdw8PeEuzfMo2VpdjAIaL2m+uzvc7ZZxqz0M09b9jPcH10EgsnBm19+YPWUqvpw4Cwu3nIMxqiNe+OYtjIouc+NERJWKIjIyyhQTG4PRX2RhTL05cjER0Z1lLMhCcmIizue4IzwmGlFBomdwBRgLcTkxDmeScqEMrIKYmGoI8hBrmmDUGyFGKVSqVCg+Go7JYIBBCoz25cWZjNIy0soKpQqqMv6sNmhTkZCQjEuZhdD4BqFqVHVEBLjzr3AiqpT+OD4cM1/xR9yZOOnkpjCP+iBGYGA4JCIiIroLlRUO+QctEREREdkwHBIRERGRjdJ6XbZG6YVcXar8jIiIiIhclch8IvsJ9veVstUc+rpHQKtLkZ8RERERkavSSuFQZD9HroRDtwik5Z+UnxERERGRqxKZT2Q/R2zhMNK/ExJztsvPiIiIiMhVJeZsM2c/R2zhMCawJ/RGHU5nrpNLiIiIiMjViKwnMl90QA+5pCRbOHRT+aBR2EgcSpuNlLxjcikRERERuQqR8UTWE5nPXe0rl5ZkC4dCo7DRqBnQnQGRiIiIyMVYg6HIeiLzlaVEOBRaRDyDIK/62JI0gU3MRERERC5AZDqR7UTGE1mvPIoakVGm2NgYbFi/Xi6yOJIyU5pmQa3UIMq3LUI868BHEwZvTai8BBERERFVRmIcQzFEoeiVLDoci2sMRVOyfY1h127dcOZMHBTF761cVjgUCvU5iM9ci7NZm5BTlIScwiTojHnyXCIiIiKqjMQA12IcQzFcjeiVLDoei/4l9hyFw1LNysWJBYmIiIjIuZlM9vdBKVsFm5Xbyc3KoWxWJiIiIqrkLM3KqXKz8rYba1Yu0GdgT9JkJGSuQ+OQEagV0N1cTkRERETOSXRIsfZUFh1SPNSB5vIKNSuLYJiedwwdIl5iMCQiIiJyASLTiWwnMp7IeuUpEQ5FU7K1xjDMq75cSkRERETOTmQ7kfFE1hOZryy2cCh6JotrDBkMiYiIiFyTNSCKzFdk0MqlJdnCoRiyRnQ+YVMyERERkesSWU9kvriMNXJJSVI4NJn/F2MZisGuiYiIiMi1iZFoRPazEMPcXBnqxlZzKAa5FsPVEBEREZFrE5lPZD9HroTDwiTz7fGIiIiIyLWJsatF9nPEFg7FbfE4wDURERGR6xOZr6xbItvCIRERERERwyERERER2TAcEhEREZENwyERERER2TAcEhHZMRkNMBgMMF4Z9ouI6K7BcEhEVJzuFL7t2wbhEb3x1OIUuZCI6O7BcEhEzkm7Dx/06oDImv3w4op0ufDmMBQVIF+bg1ydXEBEdBdhOCQiJ2VAbmoaLqdlIseokMuIiOhGMRwSERERkQ3DIRERERHZMBwSERERkQ3DIRG5HFPqLvz86ff49OsF2HNZLrSXuR8zvpCWmTAbWy8a5cIyGNOxc+aP+OzTSfhm/nHkysWOZOxdgK+k1/586mYkFsmFREROhOGQiFyOMfsE5n01AR98tRInCxwPVmjSnsHCCRPw/ieLcVB7lQENlf4I1m7B1+9/hXfe+xM7s+Rye6YUrP/mC/zv/UmYf94bwW5yORGRE2E4JCKXZbppg1irENtvMDqHKaBP2ISFux2nQ2PSdszbnAqjT0MMG94IPnI5EVGlZT1Piu/SJL4xHBIRVYCiWkeM6V4FSkMS1i84gAy5/AoDElcvxuYUEwJbD8TAeqw2JCLnxHBIRFQhQej4YHfEqg04t34Ztttfy6hLwIq5UmhUhKKztFyMWi4nInIyDIdERBXk33IgBjZwh+HCNszfVjIdFp1ajwV7s6GK7IKHuoeDw3ITkbNiOCQiqijvhhg+ohF8jCnYtGAPrtx5uQBHFi7DAa0GtQcMQvtguZiIyAkxHBKRkzJAb+5xooBKebvq6TSo2/8BtA4wInnTUmy6KF/Jrf0Hi5eeRr5XPQwZ0Ri+llIiIqfEcEhEzik/E2k5Ruks5gl/H41caKFQKKVJemAoQoFODnB2jEWFKDTIT66BKqY7HuwSClzajQWbUsw9+7L3L8Nfxwrg12IghjbysCxIROSkGA6JyCnpMy/hohif0CscsVVLBjKFuxe8RV4sSEdyhs5SaCc/KQFJ+fKTa6EIR/cxHVFdcRnbFuxAkjETO2ZvQJwuCB0e7IFaJXMqEZHTYTgkIiekx5lVK3FAC3jWaomW1VRyuYXCrwpqBEllheexbccFlI6HUqCbuxHxevnpNQruOAQP1FYjbcsSLN/6N/5cdwGm6h3xUK9qPKkSkdPjeYyInIABBQXWJGeC9vCfeHviPuTAFy1G9sM9nvIsK9866NYyTDrBZWPb5MlYGF/8PnYFOD3nM7yzKA3q6x1uxrcxhg2qA4+MA5g3dSE2n1cgRgySHSrPJyJyYgyHRFT5mS5izjOD0LbLKPRs2wV1Or2PZReMCGj/FD56tBZKDzcdjO7Pj0EbX6DozEI83u4+9Br9X7z26msY1rk32j+zEWGjh6O1v7z4NfNE46ED0NwnE1sWbEGyW20MHNkc1705IqJKhOGQiJyAAkrtJRzZvRvbDl1AlsEbdYe8iYWzn5QCmryIHc8mT+D3WS+gV01PmLITsXXxbHw/aSFWn/JEn/FTMPXxWAR4eMLLzxvudn1WVO7ucPfysVy3WAa3Or0wqm2A+bFPs/4Y1sS++pKIyDkpakRGmmJjYjH6yyyMqTdHLiYiqlyMBVlITkzE+Rx3hMdEIyrIrWIDTRsLcTkxDmeScqEMrIKYmGoI8hBrmmDUG2GUHilVKhQfDcdkMMAgBUaFVK4q60X08Zg6aCheWq9Aj28XYMG/IlHyykciosrtj+PDMfM//jgTd0Y6n0r/iWEepIk1h0TkFJQe/qhWtzFat6iLmhUNhoLSHcHR9dGqfQu0aFBdDoaCdAJUq6CWJvthEkUoFOVlBkNJ3oHFmL49C8qq7fFw3xoMhkTkMhgOiYiuWSa2/PoXjuS7o8GIB9GrSoWjKhFRpcdwSER0TYzI2PwTPph7FobQ9nj+yea8IwoRuRRbONQovZCrS5WfERFRcSnrvsfzL3yA/4wdg3aDp2Bffjj6vzcOw6LYoExEzkdkPpH9HFGa7/0k8XWPgFZ35TbyRER0hSnjGJb+Mh0/zNmN86pYDP98Cn54OBru8nwiImeilcKhyH5mcha0Dtxgqzn0dYtAWv5J+RkRERUX3HMc/lr1G5ZvXIVTp5dh2lON4M9LDYnISYnMJ7KfI7ZwGOnfCYk52+VnRERUnNq/Gu5p1w6dW8aiig+bkonIuSXmbDNnP0ds4TAmsCf0Rh1OZ66TS4iIiIjI1YisJzJfdEAPuaQkWzh0U/mgUdhIHEqbjZS8Y3IpEREREbkKkfFE1hOZz13teKwFWzgUGoWNRs2A7gyIRERERC7GGgxF1hOZrywlwqHQIuIZBHnVx5akCWxiJiIiInIBItOJbCcynsh65VHUqBFpio2NxYYN6+UiiyMpM6VpFtRKDaJ82yLEsw58NGHw1oTKSxARERFRZSTGMRRDFIpeyaLDsbjGUDQl29cYdu3aDWfOnLHdV1l8LzMcCoX6HMRnrsXZrE3IKUpCTmESdMY8eS4RERERVUZigGsxjqEYrkb0ShYdj0X/EnuOwmGpZuXizAsSERERkVMzmaxDXF8dm5WJiIiIXMxNbVYu0GdgT9JkJGSuQ+OQEagV0N1cTkRERETOSXRIsfZUFh1SPNSB5vIKNSuLYJiedwwdIl5iMCQiIiJyASLTiWwnMp7IeuUpEQ5FU7K1xjDMq75cSkRERETOTmQ7kfFE1hOZryy2cCh6JotrDBkMiYiIiFyTNSCKzFdk0MqlJdnCoRiyRnQ+YVMyERERkesSWU9kvriMNXJJSbZwKMYyFL2SiYiIiMi1Rfm2M2c/R2zhUAxyLYarISIiIiLXJjKfyH5WxUdBvBIOC5PM4xgSERERkWvz0YSas58jtnAobovHAa6JiIiIXJ/IfGXdEtkWDomIiIiIGA6JiIiIyIbhkIiIiIhsGA6JiIiIyIbhkIiIiIhsGA6JiIiIyIbhkIicWCbWvjEIsdVbIrr1W1iWIhcTEdF1YzgkIueVshN/LDiKixkZSDm6BjPWJ8MozyIiouvDcEhETsqI8+sWYkOSArEtGyNEcRlbZm5AnF6eTURE14XhkIickz4RK2buQSoCcU+vTmgYqEDGzsVYeqJIXoCIiK4HwyEROaXCE2swe1cmlFVaY/Co/hjSMhAK7VHMW3Acjm8IRUREFcFwSEROKB+H5y/DAa0SEV36o1N0NO4b0RKhigL8s3gJ9ubIi9kxpe7Cz59+j0+/XoA9l+VCe5n7MeMLaZkJs7H1ouMrGAsv7sesj9/EsN6D0bplf3Qb+Do+nnMEqToDzqychs8+/g6f/7YP6SZ5BSIiJ8JwSETOJ/sg5i4+hXxVBLoNa4FQ6VQW0XUgulVTovDkGszanikvWJIx+wTmfTUBH3y1EicLHCc3k/YMFk6YgPc/WYyDWvtlinB61mto23g4Hhs/B8u3HMLRYyewa818jB87FG2HTcSGzavx5fiv8e2SRCnCEhE5H4ZDInI66dsXY+mpIrjFdMWINgGWwtCWGNGjGlSGJKyeuQOXyqm1M11njd7ltR9hxHMLcCJXhYheL2DW5vWITz6A86eWYf67neG25Rd8t/qiFCGJiJwXwyERORdTCjbO3ISzBg1i7uuLFv5yOQLQZlhnxKiNSN6wAGvO3eRBbbT78PVbc3G8QI3aj36LDXOeR//mkQj19UJARF30eXUS1v7YG7qT58zhkC3KROQcip+txGMTwyERORfj2U2YuSEFRo9aGDC4EXzkcsGvxf3oV9cNprQ9+HN5InRy+c2QuXMhFh0rFC+CJ57vguoaeYaNChEDXsK4noHycyIi58RwSERORI8zyxdj62UTvBv1wQP3eMrlMp+GGHR/LXgiG3vmrsKxArn8hhUibvtBJOmBwLYDMaBuqWRooQpGvUbhcJceKiwlREROh+GQiJxHwSksmntQin4eiG5cBRkH9mLbtj1Xpu1HkB15D2pKmVF7YBnmH7pZXUJycf5MmhQRlfCvVgV+ZSY/DfxD/aSvRETOi+GQiJxG7kEp8B0UoxgW4Mgvr+P+7iPQs+fIK1OPUej/3GwcE5lQCpJ/zTmALPOaN8ikg1ZbBBPcEFQtSIqm5eHVhkTk3BgOichJZGP3nNU4XgD41GyKzt06oFsZU9d7I6QAp0fc8sXYVmw8Q4VCKU3SA0MRCnSOQ5yxqBCFBvmJlbSeu4daelCE9AvpUjQtSxEyL2WztzIROTWGQyJyDmm7LZ1MFCHo8b/vsWzJr1hSxrT49xfRPUQBvdx5xRoDFe5e8BZtvgXpSM5w3F0lPykBSaVao31QLTIQGhiREZ+INPvwaGXKxpmTqeytTEROjeGQiJyACckbFmLNOQOUVdtgaOfwcjt8qGp0xKguoVCYUvD3zL+RKIc5hV8V1AhSAYXnsW3HBQe9mTOxY+5GxOvlpzaeqNWuEapIZ8ysbX/gx22Ob8Gi3TMLk9any8+IiJwTwyERVX6G81hlHthaiYjO96NjuFxeFkUoOo/qhBrSGe7y9kVYelpOe7510K1lmHTiy8a2yZOxML54A3ABTs/5DO8sSoNatCDbCek8CiNE7+jCk/jlxQ/x58mS1Yu5p/7Cmy/NxAWfAEjxk72VichpMRwSUaVXdGqt5ZZ4Ssvt8kLk8vIEtRuAvrFSyss+hHmLTsi3sgtG9+fHoI2vtM0zC/F4u/vQa/R/8dqrr2FY595o/8xGhI0ejta2gbWL8WmOV756QpqnQO7xeXiyQ3e07vcSXhn3Hh69vz+ad3gVs43d8dyw2rAbYIeIyKkwHBJRJVeAo6v+xhmDO3zrd8Ow1vLt8q7GrymGDW4Afzcjzm7ciMNaS7Fnkyfw+6wX0KumJ0zZidi6eDa+n7QQq095os/4KZj6eCwCPDzh5ecNd7sLB33bPI+Fy8fj0XuDoM5LwZGNSzB54gzM25IMv96vY/GSt9Er3AATFFB7ekLD6kMickKKGjUiTbGxsRj9ZRbG1JsjFxMRVR4mgwF6oxS5lCqoVdeQuExGGAxSwlMooFQpSzb1GgtxOTEOZ5JyoQysgpiYagjyEEuYYNQbIW6+p1SpoHT4cgbkJCUg7kIWijyCUD2qGqr4aaTt52PXO0PR+8tTiPjXL9j2bQc4qoQkIqoM/jg+HDP/44czZ+LM50kxmoNCnC/l+URElZZCCmkajfragqGgUEKlVkFlHwwFpTuCo+ujVfsWaNGguhwMBenEKK2jlibHwVBQwTciFk1aNkfLe2qiqjkYSvSXsH9PEorgg5gmUSVu7UdE5CwYDomIbpKcXXMxfVcO4FMXPdtXMXdMISJyNgyHREQVoT+PRV/9iCVHMx0MgWNA5t7f8OTj03AwX4Ua/R7BsHq8iR4ROSdbONQovZCrS5WfERFRCYoiJK3+HiNbt0NM4yHo/+CbGPfeBLz1n1cwqH1n1OnyPv5K1MO/5eOY8nlvVL3GFnAiottJZD6R/RyRw6EJvu4R0OpSLE+JiKgkhQ8a9OqBdlFuyI47iPUL52DiZ99jwg+LsPpACnQBdTHorcnYvPxVdA5mMiSiyk0rhUOR/a64MjyD3Fs5BuN+aopAt2poGDxInkVERKWY9NCmXcKFpEtIvpQNo1cgqkRGIbZ6ANx5oQ4ROYmjlxcho+g8Pn78gNxbWfrf3GO5WG/lSP9OSMzZLj8jIiKHFGr4hFZD3SbN0aVXF3Tr0AQNIhkMici5JOZsM2c/R2yns5jAntAbdTiduU4uISIiIiJXI7KeyHzRAT3kkpJs4dBN5YNGYSNxKG02UvKOyaVERERE5CpExhNZT2Q+d7WvXFpSiYaQRmGjUTOgOwMiERERkYuxBkOR9UTmK0upq2RaRDyDIK/62JI0gU3MRERERC5AZDqR7UTGE1mvPLbeyhs2bJCLLI6kzJSmWVArNYjybYsQzzrw0YTBWxMqL0FERERElZEYx1AMUZiWf9Lc4VhcYyiaku1rDLt27Vqqt3KZ4VAo1OcgPnMtzmZtQk5REnIKk6Az5slziYiIiKgyEgNci3EMfd0izL2SRcdj0b/EnqNwWO7gC2IBIiIiInJuJtOVQa6vhs3KRERERC7mpjYrF+gzsCdpMhIy16FxyAjUCuhuLiciIiIi5yQ6pFh7KosOKR7qQHN5hZqVRTBMzzuGDhEvMRgSERERuQCR6US2ExlPZL3ylAiHoinZWmMY5lVfLiUiIiIiZyeynch4IuuJzFcWWzgUPZPFNYYMhkRERESuyRoQReYrMmjl0pJs4VAMWSM6n7ApmYiIiMh1iawnMl9cxhq5pCRbOBRjGYpeyURERETk2qJ825mznyNKMeqNmMQg12K4GiIiIiJybSLziexnyYHFxkCUHtpqDsXdT8Q4hkRERETk2nw0oebs54gtHIrb4nGAayIiIiLXJzJfWbdEtoVDIiIiIiKGQyIiIiKyYTgkIiIiIhuGQyIiIiKyYTgkIiIiIhuGQyJyKsaifGRduoAzZ84jKTUTOfmG4iN0ERHRDWI4JKLKrygFW398FwOat0Z4eBNUi+mMxo27oHbNFqga3gx12v0b3+x2fI9QIiK6NgyHRFSpGZI34b+970OfF3/HuhPp0Gn8UTUmFnVrV0fVIE+ojHlIOvIP4nPlFSoBU8FlHNu4BUey5QIiIifCcEhElZcuHr8+9yom7sqCIrQNXp+zEvEXduHU4VXYd2AjTp87gKQTC/Dba91Q06NyNC7rT8/ByMYd0Orh33FIywZvInI+DIdEVGnlHVqMXzZdhlEVhbG/fI93+sUiUKOQ5woqeFdrjCFvvYUX2/jKZXeWAvnIytLBaDLKJUREzoXhkIgqrdxzCbiYLwWuqs3Qq7G/XFq5mYpXFrLikIicEMMhEVVaSrUKSoWUsTLO4lSqXi69NsbsM1j5/Yd4qO8QtG7RD536PIuXvlqJIxkGeYliii5g3dRJ+PjjHzBte5qU7YzIObUR373yb/Tr0h+t2w1F/7GfY9rmZBTIq1iYkLr5D2m9b/HJL9txUScV6ZKx5ofvzGUffzwZ07alSVsjIqr8FNVrRJpiY2Mw5stsjKk3Ry4mIrrzjGfnYlj7N7EyXYmIAR9g+a/DUdtdnnlVBqRu+BpjHp2KrWkiCCqglJKm0WiJaKqQNvjv7O/xWht/aY5MdwoTeg/GWzu9cP93U/Hv7El46v31SCwwQaFQwGStFlR4ov6jn2PBhD6I1IgCA85MeRTtX96OHPMC9rzR8bNFWPZcNFRyCRHRnfbH8eH44z9+OHPmjPkcZ57EuVKeT0RU6SgjB+DDtzsiVGFA0l9voXOXcZh+IBMVqUPM2fkdho+ajK2X3VF3xDtYeWA7ki/tQ/zeH/FWzypQpe3Ax4+Nx+JkR/V5JuRun4rnPtqH8Ec/wVqxbsp+nDkwE989Wh++yMexaW/iyUnHpUeCCuHdnscvc6di5ndj0MxLKgpsgRcmT8JcqWzu3Al4s2cogyEROQUpHPKiGCKqrNxR7/GvMPvDboh0MyLr0Fw827Ez7h06AX+dzC27mTbvML577SfsyvFAo+enYN3PD6Nj7RD4ePkgrF5XjJs5GW+08oYuYSW+nnG8RBOxpXIwHRtm7UPd8bOw/MshaFs7FL7SulVqt8LY737H3BfqwxPZ2Pr9j1idYjmH+kjz+vbthvs7xsBH/Nmt8EOjHj3NZWLqVMfHvBwRUaUkTmXSJL6x5pCIKjdlAFq/MBlb13+MJ9uGws2Yi9MrvseoVl3R9dk/sTejdERM3zwTM/bnQx3dH++90haBxTs4C16N8ODjrREkagDX7kRiiapIS9jzbfUI3n4wVgqBdhT+aP/s4+gdroQxaQf+2pUpzyAicg0Mh0TkBFQIajYME9asx75Fr2JoQz+odOnYM/1t9OrwPCYfyCnWBpKPU1sOIdmgQFjTloh1L0RBgd1UWABlcFUEq4G8sycQX+JCQZEk3VCzY1vULpUMLZRVmqBjXS8pR2bgn33n5KZlIiLXwHBIRM5D4Ynonk9h+vaN2DJ5OJr4K1GQsAqvj/wv5iRYex/nIflsOoqkuJi8eBxaVGuM8HC7Kawp6g3/E6f1gLFAi5wieVWJwlzL6I3IOlXgYS5xQOWHalW8pBhpQF5WXoWugSQichYMh0TkfKRw1vjhj7B29X/RK0wJw7kVGPff5Ug2XzNThNxcMZaMAt7hNVG3bi3HU73aaNCwLhrUCYan8Uq9o4USarXos1cWPQqKDObaSoVaVc5yRETOh+GQiJyWV6OReO/pe+AlxbSU3ZuwP0MqVLjD19dNCmwKBPV4Ayt3LsOuXWVPu1e/h/urFot35pxoKjmYtT1dFi5czJMeqOEb6AM3SykRkUtgOCQiJ+aO6k1qIVg6k5mK8pBrbh72Qc36VeEJI9Lj4pFyjW2+lkyoRfyx5DKvJTSmHMOehELpDBqKe5pHMBwSkUthOCSiSkt74QLSHdzI5IoCnDtwGpeNgCYwAlXMo8W4IaZ9C0RJiU27ezambr7W3sQiHhbh5JK/sFPURJZSgCN//o41F41QRbbFAy1K3tZPodJALc6sunzk5Jc52A4RUaXFcEhElZQRl9d9jgf6j8PElaeQVmgXtAw5OD7/Ezwz4SDy4IH6D/RFc3koQZ+WwzC2rRTais5gxsvvYsreTNhnTF36Ufz+7heYe9p+jqWJuejEPLz25kIc0xZvXy5E3NwP8Njn+6GFL9o+8TA6BcmzZMqAKqjmJ51ac+Ox/QBvmUdEzkdRvUYNU2xsLG+fR0SVjBFnf30MbZ7bjCzpmdIjADVio1Aj1BumzBScP3ce5y4XSEuJu5O8inl/Pm4Lh0LRqbkY2/9tLDqnBzQBiG3WBC2a1UV192zE7d+NLXvikappgwlbpuHJWPneJbbb53mjz9OdcW7GQiT410WrDs3R0D8Lh3fsxt6jl6A1qlF9wLtYPG0k6tl3aTalYPFjQ/HQ7CQYfSLRqW9bVM8+C92A9/DTIzG8SwoRVRolbp8n/hPDNUiTys/f/92goCA07l2IxiHD5MWJiO40BTS+vlCkJ+Fc0mVkanORmXoJZxPO4dzFdGQVAL5RzTHynS8w/ZP+qGM3JqEquCH6D2oG7wv/4MDJJCSdS8DRvXuxfecRHD+XC8/Y9nhy/Jt4pn0o3K39UYzp2PH7bKy/4IZGT3+CSWP8cHjVevy9fT927juJxJQ8KfBFo8+rn+P3z+5HrKOxbhTeUhCNRO6BHdh3JhlxR4/icFwuwrsPw8h7A9lcQ0SVxuG0uTi82h0ZGRklwiFrDomo8jMWIUcKhucupCA9X43AKuEIDw1EoJ97hWriDNpUJCQk41JmoRQ4g1A1qjoiAtxLB7ViNYeDZyzFjMEh0sr5uBSfgPhL+fAMq4bommHw0xTr3VwWQyGyUpJxNjkPbmHVEV3ND24VWI2I6HYpq+aQf8QSUeWndINveA00aH4vOrRvgoaxVRBSwWAoqHxCEduoMdp1aImWTWJR3VEwLIvKE+G16qNN++ZoUju8YsFQULnDv2pN3NO8AepWZzAkIufBcEhERERENgyHRERERGRjC4capRdydanyMyIiIiJyVSLziezniC0c+rpHQKtLkZ8REd2dxPXYUCqh4jWCROTCtFI4FNnPESkcWs6Avm4RSMs/aX5MRHRXUtfA6B8XYe/uGfhfRz+5kIjI9YjMJ7KfTbE/iG01h5H+nZCYs11+RkR0F1J4ICwmFvXqxSI6hHdMJiLXlZizzZz9HLGFw5jAntAbdTiduU4uISIiIiJXI7KeyHzRAT3kkpJs4dBN5YNGYSNxKG02UvKOyaVERERE5CpExhNZT2Q+d7WvXFqSLRwKjcJGo2ZAdwZEIiIiIhdjDYYi64nMV5YS4VBoEfEMgrzqY0vSBDYxExEREbkAkelEthMZT2S98iiq14g0xcbGYOOGDXKRxZGUmdI0C2qlBlG+bRHiWQc+mjB4a0LlJYiIiIioMhLjGIohCkWvZNHhWFxjKJqS7WsMu3Ttarm3ssJ8d2XzeF5lhkOhUJ+D+My1OJu1CTlFScgpTILOmCfPJSIiIqLKSAxwLcYxFMPViF7JouOx6F9iz1E4LNWsXJxYkIiIiIicm8lkkh9dXQWbldvJzcqhbFYmIiIiquQszcqpcrPythtrVi7QZ2BP0mQkZK5D45ARqBXQ3VxORERERM5JdEix9lQWHVI81IHm8go1K4tgmJ53DB0iXmIwJCIiInIBItOJbCcy3u6kSXKpYyXCoWhKttYYhnnVl0uJiIiIyNmJbCcyXmLmehy+9IdcWpotHIqeyeIaQwZDIiIiItdkDYhHU2ejyKCVS0uyhUMxZI3ofMKmZCIiIiLXJbKeyHxxGWvkkpJs4VCMZSgGuyYiIiIi1yZGohHZzxFbOBSDXIvhaoiIiIjItYnMJ7KfI1I4tAyKKO5+Im6PR0RERESuTYxdLbKfI7aaQ3FbPA5wTUREROT6ROYr65bItnBIRERERMRwSEREREQ2DIdEREREZMNwSEREREQ2DIdEREREZMNwSEQuxAR9fg7SLyUj7vQ5JKXlIE9nlOcREVFFMBwSkdMz5V/Aum/fwoCW7VA1vBlqxHTEPU26onZUc1SJ6IDWg97F1K0pKJKXJyKisjEcEpETMyJtyyQMbNwDA96YhXX/pKJA7YPQ6lGoUzsS1UM8ocxPwZHVv+Ol3j3Q+on5OJkvr3oTmAou49jGLTiSLRcQEbkAhkMiclJGXFr5AfoO/gprk3Rwr94eL01biJPn9yLhxDrsP7AeJxL34/zxuZj8VHOEqvNwcuab6DP6N/xzEwKi/vQcjGzcAa0e/h2HtJY7TRERuQKGQyJySvqEv/Cf/5uJo7kKBLZ5Fou2TsP44fegqpdKXkJQwad6Mzz81Uxs/m00GngZcGn1l3jmi/3IkZe4XgrkIytLB6OJ1zQSkWthOCQiJ5SJjV9+iyUXDFBH3o+vp7+ATiHlnc7UqDFgHH58owX8kIs9UyZibpxBnnd9TMUrC1lxSEQuhOGQiJyOIWENJi8+Cz380fk/L2Jg9eK1hWXxRNNHn8LAmtKyGbvx88x/4LB12aDFqXWz8N7TT+K+rgPQqs1g9BzwPF6duBoHU4uQuvkPfPzxt/jkl+24qJOW1yVjzQ/fmcs+/ngypm1LA+sSiciZMRwSkdNJ27cJ+9NNUIS3w8P3R0Etl19VcAsM71ENKhQgbut+nNfL5bKC00vwf506494Bb+GzGeuxafdxHD96GNvWrcCkcW/g7b+SkfXPSnwz/ht8PHEtThVKK+Ucw5yvvsF4qWz8+B8we38OKxKJyKkxHBKRk9HixNZjuCwlMJ86LdEkRC6uEG/UujcGftKjnNOHcCLLUiro4hbiiX6v4OcD2fCs2w/jF6xA3MVDuJS8Gyf3TMeEx1sgwkOJ8G7P45e5UzHzuzFo5iWtGNgCL0yehLlS2dy5E/Bmz1ApfBIROS+GQyJyMoVIT8uFHgr4R9VASIWrDQUl/KpXgb905jMVZCOrQK7j0ydg+osfYuF5IwLav4glG7/GS71rI9zHA54+AahWvz2e/GYqJo2qDt/ardC3bzfc3zEGPuIMqvBDox49zWVi6lTHx7JNIiJnIU6FxZo8GA6JyLmYCpCZKdpzlfAM8IHGUlphGm8/eIqqPV0ecgosVwdqd83G1C2ZMPm0wOtfP4lWfgpzuT2l0nE5EZErYTgkIiejgrubSHcmFOTkwe6ywasyFOSiUGRCd18EeolTYBHiNu9EvJQ3A9oOwgP1rjVuEhG5FoZDInIuCg8EBHpAASNyL6Ui55q6BpuQl5YOrUGKmN6BCPIUNYG5OHvyEvKhRtVGtRHKsyIR3eV4GiQiJ+OL2s2jIK7sy/xnD44W61RydXk4tesk0qVHfnWboY7omWIqQFZWoRQbVfD08WBnEiK66zEcEpGTUaFai+aI9gCM5zZh5vqU4tdRly/7EBatToQeXqjbqTGqijOgwh2+vm5QoAiXTidBa1mSiOiuxXBIRE7Hs+lQPNExADClYPnnP2NzpjyjXIX4Z8ZkzDqlhyK8E54aXhtu5nIfRDeoCk8pYmYlnMZF0deFiOguxnBIRM5HHYkhr45EMx8g//AMPPfyIpwukOc5ZEDK+ol4Zvx2ZJh80faZp9C3mvX054aYLh1QxxPQ7pyO8QsuSEtfnUKlgVpsQpePnHzeE4WIXAfDIRE5Jf/2z2HSWx0QqixC3OzX0f2+d/HH/nQUlmhjNkGXeQqL3nscnYZOwZ5sJcJ7/wffPn+P+ZpFK+97R+Hl/tWgNqZg2Rsv463FZ+1urWdE9tF1+HNTsq0JWxlQBdX8pFNobjy2H+At84jIdSiq16hhio2NxZgvszGm3hy5mIjIGeTjn59fx4jXliPOXHOognd4JGrHVkWguhCZF8/hVFwqtHop0ik8Ue+h8Zg94QHU8jCvXIIpfSfeH/YcvtiRCaPSE+H1GqFVi4aIdkvDsQMHsfNQLjpMXIQ5D0XAPNqhKQWLHxuKh2YnwegTiU5926J69lnoBryHnx6JYccWIqr0/jg+HH/8xw9nTp+BQqEwT9IXqPz8/d8NCgpC496FaBwyTF6ciMgZaBDavA/+Nepe+KQlIv5cCtLS03Hx3DkkJCbj4uVc6N0CUavDYPzvp0n49unmCC3jjioKz+roMqwXGprO4tDheJw7fx4nDh7Azn0nEXdRh9CWvTF8aGe0ruEpr+CN2GaRyD2wA/vOJCPu6FEcjstFePdhGHlvIJtliKjSO5w2F4dXuyMjPaNEOGTNIRG5Dn0+0pIv4uKlNGTqvRASFoIqEaEI8LjGqKbPw8WERJxPK4AqIBQREWEI9XNzHPgMhchKScbZ5Dy4hVVHdDU/uPFGKkTkBMqqOWQ4JCIiIroLlRUO2fJBRERERDYMh0RERERkYwuHGqUXcnWp8jMiIiIiclUi84ns54gtHPq6R0CrS5GfEREREZGr0krhUGQ/R5TWEV193SKQln/S8oSIiIiIXJbIfCL7FWcb5F/+jkj/TkjM2S4/IyIiIiJXlZizzZz9HLGFw5jAntAbdTiduU4uISIiIiJXI7KeyHzRAT3kkpJs4dBN5YNGYSNxKG02UvKOyaVERERE5CpExhNZT2Q+d7WvXFqSLRwKjcJGo2ZAdwZEIiIiIhdjDYYi64nMV5YS4VBoEfEMgrzqY0vSBDYxExEREbkAkelEthMZT2S98iiqV69hiq0Vi40bNshFFkdSZkrTLKiVGkT5tkWIZx34aMLgrQmVlyAiIiKiykiMYyiGKBS9kkWHY3GNoWhKtq8x7NK1q+32eeLWeebb6JUVDoVCfQ7iM9fibNYm5BQlIacwCTpjnjyXiIiIiCojMcC1GMdQDFcjeiWLjseif4k9R+GwVLNyceYFiYiIiMipmUzWUQyvroLNyu3kZuVQNisTERERVXKWZuVUuVl52401KxfoM7AnaTISMtehccgI1Arobi4nIiIiIuckOqRYeyqLDike6kBzeYWalUUwTM87hg4RLzEYEhEREbkAkelEthMZb3fSJLnUsRLhUDQlW2sMw7zqy6VERERE5OxEthMZLzFzPQ5f+kMuLc0WDkXPZHGNIYMhERERkWuyBsSjqbNRZNDKpSXZwqEYskZ0PmFTMhEREZHrEllPZL64jDVySUm2cCjGMhSDXRMRERGRaxMj0Yjs54gtHIpBrsVwNURERETk2kTmE9nPkSvhsDDJfHs8IiIiInJtYuxqkf1KM10Jh+K2eBzgmoiIiMj1icxX1i2RbeGQiIiIiIjhkIiIiIhsGA6JiIiIyIbhkIiIiIhsGA6JiIiIyIbhkIiIiIhsGA6JyAkUYt9no1C7RgvUiGyLDq9sQppJnlUmHQ5PfBT1Itug9dMrkHTV5YmISGA4JCLnUKBFWnom0i+nYv+0T/D55ix5RtkUBTlIu5yGpMuFcgkREV0NwyERORU3H294FJzEL29MxdZsuZCIiG4ahkMiciJKRHQfivui1cg7OANvTjwIrTyHiIhuDoZDInIiJhSpGuDJ13qgmioPe777EJP358vziIjoZmA4JCInIoVDgxvqjHoNb98XCmXOPkwYNxNHCuTZ16MwBbvnTsUrDz+KHh3uR6s2g9Fz4H/w1tS/cSrbKC8kM2Zg5x9T8dmnkzBx0Sk4viupoEfCmhn44tPv8cX0fRXoPENEVHkwHBKR89FEYsT4F9ArTImsLZPx5vQzuPYuJ0Zc3joZgxp3QddHP8Pk+Vuw/cBJHDtyCNvWLMaElx5Di0Yj8daaFCnqyZR+CM7diq/f/wr/+2AO9ubI5fbyj2Hm+5/hf+9Pw1ZTKAIVcjkRkRNgOCQip+RWezA+fL0dgpGJDZ98ipmnbRGuQrJ3fIshQ77E6vN6BLZ6GFNWrsDxsweQfG4z9iz///buBT6K6tDj+H832bxISHgkQAzPEAiK+AARFJCIXkUFba0oIG29tXz6sLa+9fq44vVRvFqt1+qt1mutgkItD7UWrTwERBFBxQdICBCEJISAQEKSzWP3ztkdhiQkgZt8LmEnv28yu7NndjizmzD7z5k5Zx7ST85MVmDPOj1x7c/18EeHUmCU+l08Ued08agq73298Wnj6fDgF+/oja8q5O0xStPGZ1hrAUDkIBwCiFAxyv7RXbpttBXiipfpofveUn6tvehoDn6mJ255XmtKo9Xvmsf0/qL7dO3oLPXsnKDETj006Lyr9dS7c/S7i7rIU/a5nrlvrjZUhVf19hytyeelylOdr3fmfW5F04bKtG7ee/rGH6U+469UTjeaDQFEFsIhgMgVP1A/+e10nZscUOFbj+vf5xepwVmCjdq7co7mfFEpT9r5unvGZeoXay+oK76/Jt/2Aw2Ok0rXLtDr1vNDPGkaO3mUMry1yl+8SGu+Cxc79n+u+Yu2qSo2S1dMHapOdjEARArCIYCIlnDaND1y4xlKqi3UghlP6u1dR+v9UaHNH6xXYa3U5eyLNeakpneDiUNydH6faKmyQGu/KHGCZ5dzL9f4ftGqyV+p+R/Xbzvc++GbWpRXo8QzJ+qaMxLsUgCIHIRDABEuQUNvuFs3DE1Q9ZaFuufB94/SO7hcBfnfqVo+dRvYu/nOInFp6pduAl6lSgpLrXVsyWdq8hVZiq0t0JLX16rELpb2aOXclfo2kKIRUy5WdmMtkgBwgiMcAoh8iafr1zN/qNMTqpU7e6ZmLjvyTEBH0K/SUr+C1u4vJs7X/E4wKk7JST5rJqDqyqo6h6zjNeTK8RqSENDO5W9r1e5wabBwleYu2yV1H6lp43vSEQVARCIcAnCFpJHT9dvrsxVfmasX7/xvrTgQVLCxVkFPvDp1ipVHVSrOK2z+CitV+7SjyIxm6FNKapJ1e1jcoIt01dAkBXZ+pPkflFhhM6BvF7+p5bu86nPJVRrXg44oACIT4RCAS3TU6Nv/Tf96cqwqvpylu367UnuiYhtpvUtS5pCeSrDi3P4tuSpobgDtsp3aVOSXortp8JBURdvFIb4+uuTqM9QpWKzlf1utopodWvy3ddoT21+XTxlGRxQAEYtwCMA9Oo3UHQ//QFkxFfr0hWc1e7O/fqALiVbf83N0aqKV/db8RY/M36nGR8Cp0tev/EkL8gOKyRytCacl2eWHRKnPv1yu0WnSrpVva8mqZfrb6n1KPH2CrqYjCoAIRjgE4CIedbngRj0ytY98ZZ9qztxvGj1sHHfK9/XrK3rJFyjWW3ferPv+vqPBFVb82rJgpn42c40OeNN00U0/0rnJ9qI6PCeN1tRxPeQp+Ur/fGOVvj6QorOnjNegOPsJABCBCIcA3MXTRRfdc7uu7hutmorKw5e+q8sKfBNn/qfuGNVJwZK1evKa8Tpl+BRNueFh3fHLX+ji4TkaMe0lrd2fqKE3Pqr/mtq73vmGh3XW6Kk56ufdqbdfXqWSbiM07dJejbRWAkDkIBwCiAjehAR1iIlXSmLjMa0ub/dxuu+BCerfIUaxsfFKbmydlKG6a+E8zb3nIp2cUqOirz7Wwhf/R0//+V2t+Po7RWfm6PbZ87TooVFKbWZPmXzWBF1+aqJq/FL/iXREARD5PBkZPYOZ/TM19fEDmpo91y4GgBNMoFbVtUF5oqIU7T2WABZUoKZW1iryeK11oppZp7ZCJdu3K7/ogKpjk5WW0VO90+KPeSiaoLVttYFwPVH8yQ0gQszaOEmzbumovM158nisfaQ1mTt2YwAigxW8fL7oYwyGhkfe6OjwOs0FQyMqXl37DtTQkWdpxJkD1O//EAyNUPiMJhgCcAd2ZQAAAHAQDgEAAOBwwqHPm6CD1fY1oAAAAOBaJvOZ7NcYJxwmxaarrLrYfgQAAAC3KrPCocl+jTkcDmPSVVKxyX4EAAAAtzKZz2S/xjjhsFfyGOWXfmg/AgAAgFvll64KZb+QegM6eA6Hw36dLlRNoFqb9y22SwAAAOA2JuuZzNc35QK7pD4nHMZEJWpw2jVaXzJHxeUb7FIAAAC4hcl4JuuZzBcbnWSX1ueEQ2Nw2hT1SRlHQAQAAHCZQ8HQZD2T+ZpSLxwaw9J/rs4Jg7Sy4AkOMQMAALiAyXQm25mMZ7Jec5xrKy9butQuCvuyeLY1vaZor0+9k0aqa/wAJfrS1MGXaj8DAAAAJyIzjqEZotD0SjYdjs05huZQcsMWw7E5OcrLy5PH9EoJXVvZmpoKh4a/plRb972n7fuXq7SqQKX+AlUHyu2lAAAAOBGZAa7NOIZmuBrTK9l0PDb9SxpqLBwecVi5LvMEAAAARLZgMGjPHd0xHlY+xz6snMphZQAAgBNc+LDybvuw8qrWHVaurPlOnxQ8q237FmtI16vVP2VcqBwAAACRyXRIOdRT2XRIiYvuFCo/psPKJhjuLd+gUek3EQwBAABcwGQ6k+1MxltT8Ixd2rh64dAcSj7UYpiWMMguBQAAQKQz2c5kvPx9S/TFrll26ZGccGh6JptzDAmGAAAA7nQoIH61e46qasvs0vqccGiGrDGdTziUDAAA4F4m65nMt+W7f9ol9Tnh0IxlaAa7BgAAgLuZkWhM9muMEw7NINdmuBoAAAC4m8l8Jvs15nA49BeELo8HAAAAdzNjV5vsF9JgfGwnHJrL4jHANQAAgPuZzNfUJZGdcAgAAAAQDgEAAOAgHAIAAMBBOAQAAICDcAgAAAAH4RAAAAAOwiGACOLXukcnK6vnMPWsO/Uarn4Dxur0s76niyffrRnP/kMfbitXwF4LAHDsCIcAIktlmUr27tPeutOevdq1c4dyv/5CK96Yo0dv/ZUuOHWETr1sphZsqbRXBAAcC8IhgIiUesl/aHX+WhUUrFPBzk+0LXeZPvtotmY/+UtdM6K74lWubUuf17XnTNLt7+ymFREAjhHhEEBECvoS1bVrspKTOyo5JUWp6RnKOnW4Lv/pTXph8fva+M6durRXjIKlX+vZ6bfpmS9pQQSAY0E4BOBCUep6zvX6y8J7Nb6bV4GSVXry0SUqbHD9UADAkQiHAFwrbsBVevi2EUpWQIXvvKzXN9XaS+oLHMjToj88pGmXXKmzh12qMRf/Qjf9bpG+/K7x5ztqy5S7+DXN+Nl0jc+ZqOEjvq8LJ/5Ktz31rj7fXW0/CQAiC+EQgItFK+vyKzWmqzVblqeVn+5W/cbDWu1e+rguPvUSXXn7i5r3/np9/U2u1q54V8/de4POOf1HmvnR/gbrhFVuflM3jjlPQyfeo0dfXqLlazZq41dfaNXif+iZu+7UvW8UcZ4jgIhEOATgap7UUzSif7w1d0C5n+9Qebg4pHT105o0+Vl9sCdWA6++T4s++1CFu9Zp69rndc+F3RVV8pEe+cmDWlhYP+ZVb5mvn156q1747IDiB16qB+f9Q1uK1mtX4Rpt+uQlPXH9MKXH2U8GgAhDOATgbr5kndTNhMNalX9XJudgb/kXevr2P+nj0jgN/tUftfiFH2p0VlclJiQqLTtHd81+VncO76DqbYv05Msb5XRnqdmml37zkObvCCjl3N/ozWVP6qaLstQtMU7xiSk6adC5mv775/TM5Ax2sAAiklceew4AXMmnDh1irF1dUFXlFaqyS/eumK2XP61QdN8JmnHrSHVquC9MGKxrrz9bnVWhDe+tVn5NuLjs4zl6buU+BROH6Y4np2t4x8Z3ol4vO1cAkSjIH7YAXC7o1/79ldbuLkodOicrfLS3Qrkr16uw1qO0089SZqxflZUNJn+lvF16qEu0VL79G20tNetVacuK1drql1JGfk+XZ/tC/xoAuAnhEIC7VRRpY7450zBGXTI62+GwXIXb91pRL6jChXdp2ElD1K1bgyntdGVPelWba6RAZZlKQ02OB7V90y4rWkarx+AspbIHBeBC7NoAuFpV/hqt2mYlu5heGjOmtxURLcEqHTxozj70qEO3Pho4sH/jU3aWTj5loE4e0EXxgaC1XqX27/eHWiHjE+OsWwBwH8IhABfbrw+en6s1ZVL8oPN16cmmY4rFE6ukJHMeokedL7hTi1b/XR9/3PS05t0ZuqyHp856Vdq1uUDWPwsArkM4BOBStSp6+3Hd8tIWVXu76bJbpml4or1IieozqIfiFdDeLVtVbHc2ObpE9T3ZrBfU/m2bVeS3iwHARQiHANwnWK4Ns+7WZde9qm8qYzXgxzP0yBVpOtx/OEb9zh2m3jFS2Zo5em7FPrv8aKz1xo7SgHhrvdUv6cF5O60ICgDuQjgEEJE8tVUqr6hRdbU1VVWpouyAires16IXH9OUs8do5PTXtaEsVlmT7terMy9QjwYnCCaedZWuG5ksVeXp5Zvv1x/X7jsi6FXv/Uqv3P+Y/rr58JIOQyfr5gknKTpQrL/febPuWbhdFfaysIAOfLVYry4vFJdyBhCJPBk9ewYzMzM19fEDmpo91y4GgBORX+se+IHGzdygKm+UYqLDf98GgwHV1tTK9BkJ8yi222macu8DeujHJyu5iSEHq3L/qusm3KsF39ZIvhRlnnGahp0xUBmxB7Tl0zVa+clW7faN0BMrX9T0zMPpMrh3tR646pd67KN9Cnjj1S17sIYPO0V9Y0q04bPPtXr9QY16aoHmTkuv01oJACeWWRsnadYtHZW3OU8ejzmv2mO+aTkEEFm8CQnqEONTrC8qtDMzkzcqRgkdO6l7n2yNmfRTPTp7vjZsfF1PX9d0MDRisq7Si4tf0APfH6BO2q+8j9/XnD8+p8efek3zV36rQO/R+vXv79HkvvWbHT2dz9a/v/m6Xrl1rLISq1T89Rq9+Zc/66k/vaV/ritRx6Hn67z+cQRDABGJlkMAkSVQq+ra+gdsPV6voqJad8Gn2rLd2ratULv2+eVL6qwevTOUnhJ79L+ga8pVtC1fO0oqFZWSqvT0NKV2jOEvbwAnPFoOAbiDN0o+X3S9KbqVwdCISkxV5uAhOmfUWTrrtExlHEswNKIT1L3/IA0bcYbOyM5QN4IhgAjHPgwAAAAOwiEAAAAcTjj0eRN0sHq3/QgAAABuZTKfyX6NccJhUmy6yqqL7UcAAABwqzIrHJrs15jD4TAmXSUVm+xHAAAAcCuT+Uz2a4wTDnslj1F+6Yf2IwAAALhVfumqUPYLaTDcgxMO+3W6UDWBam3et9guAQAAgNuYrGcyX9+UC+yS+pxwGBOVqMFp12h9yRwVl2+wSwEAAOAWJuOZrGcyX2x0kl1anxMOjcFpU9QnZRwBEQAAwGUOBUOT9Uzma0q9cGgMS/+5OicM0sqCJzjEDAAA4AIm05lsZzKeyXrNca6tvGzpUrso7Mvi2db0mqK9PvVOOkdd4wco0ZeqDtYEAACAE5cZx9AMV2N6JZvOJ+YcQ3MouWGL4dicHOXl5cljeqXY11ZuMhwa/ppSbd33nrbvX67SqgKV+gtUHSi3lwIAAOBEZAa4NuMYmuFqTK9k0/HY9C9pqNlwuPWKI8MhAAAA3KvvgiPD4RHnHAIAAKD9IhwCAADAQTgEAACAg3AIAAAAB+EQAAAADsIhAAAAHIRDAAAAOAiHAAAAcBAOAQAA4CAcAgAAwFwjJXRLOAQAAICDcAgAAAAH4RAAAAAOwiEAAAAchEMAAAA4CIcAAABwEA4BAADgIBwCAADAQTgEAACAg3AIAAAAB+EQAAAADsIhAAAAHIRDAAAAOAiHAAAAcBAOAQAA4CAcAgAAwEE4BAAAgINwCAAAAAfhEAAAAA7CIQAAAByEQwAAADgIhwAAAHAQDgEAAOAgHAIAAMBBOAQAAICDcAgAAAAH4RAAAAAOwiEAAAAchEMAAAA4CIcAAABwEA4BAADgIBwCAADAQTgEAACAg3AIAACAEI81EQ4BAADgIBwCAADAQTgEAACAg3AIAAAAB+EQAAAADk9Gz57BzMxMLVu61C4CAABAezA2J0d5eXnymC9PeKLlEAAAAA4rHJqsCAAAgHbLhEE7ENJyCAAA0E6FM2H9ZkKveVhTW6vdu3eHSwAAAOB6JvvV1NTajw4LtRz6K/3alJsbKgAAAID7mexX6a+0H9mth9ZdOBxW+ZW7aVOoDAAAAO5nsl+Vvyo0H46G4VuvuS8rLdOsWbO1Y8eOUCEAAADcy2Q+k/3KysqcRsMweyib6upqFRUV6ek//CFUDAAAAPcymc9kP5MBQ6yAeCgjRiUnp9xvZswx5z0le0IDIWZnZ6tjx46hJwAAAMAdTIvhww8/oiVLl2jPnj2hMjPwtXVjvq2AaH316tU7GJT1FQwtV3JyR3Xv3l3XTp2qrKwsDRgwQKmpqeGFAAAAiCimV/KmTZuUm5urV2bNCrUYHth/ILzQDoThcGgHxF69rXBogmE4IoZCos8XraTEJMXExiguNk5RUV5riXmOuWlKswub1eI1W15lKxz/SiPrZbbJ1h537eRXz9I+fp5tw9oDtwdt8DLbyTtraeErbTc/k+NfqwlWx18zlVqLzFIzXI3fXyl/VVXoHMPq6hqnlTAcCuvOW5MJh2b/bxJieMZ8m5B4eL7ufVNCy1uqhau2RZ2t0eLtbfG2tvxFtsHbE1k/k0jTTl4mjsJ8SqBJoQ/H460VVbZ81ch5nW3xMwkdYj3eWlFls++RtSi0vF4ADN+HDyUfKqu73Lrt1buP9bFhfUTWCYNNBcPQfRPCzY/HWSuqbO61NKtNXmY72NbWaIMqW6NN3iOgjYQ+bNqDFr7M1r07bVJpi7TJ70GL355WbOsJVmfo3w191723buuWmceHys065r63FQ5DH1bmOzxnZsIfYKFv6ytcGPpuir1my7Rw1fZSZ0u1altbqg2qbE2lEba5+H/SFv9XwrthNKkN3p7WVdnCtSPo16BNfmdbUWWLt9dNdYYWWc+w7kPPc+7rloXnQ4/MvJnr3ccKh2a/2CAQHrpv2IrYlNDy460VVbZ4e9vkZbaDbW2NNqiyNZW2yea2F5H05oZ2xu7XNi+zDWptkyqPc6WtqO64b6vRwipbta1tUWdzDoW9cBIM12OXHXp85OFl6X8BjdCxPic6SQIAAAAASUVORK5CYII=;" vertex="1" parent="1">
          <mxGeometry x="1301" y="220" width="647" height="757" as="geometry" />
        </mxCell>
      </root>
    </mxGraphModel>
  </diagram>
</mxfile>
